<svg width="3388" height="1144" viewBox="0 0 3388 1144" fill="none" xmlns="http://www.w3.org/2000/svg">
<path d="M13.55 933.288C15.95 931.688 19.95 929.488 22.55 928.588C26.65 927.088 31.65 926.888 59.45 926.788C88.95 926.788 92.15 926.988 96.95 928.688C100.05 929.888 104.45 932.688 107.45 935.488C110.65 938.488 113.65 942.488 115.45 946.288C118.05 951.988 118.25 953.088 118.75 985.788H79.75V975.288C79.75 967.988 79.25 963.888 78.25 961.788C77.45 960.088 75.25 958.088 73.25 957.288C70.85 956.288 66.35 955.788 59.25 955.788C52.15 955.788 47.65 956.288 45.25 957.288C43.25 958.088 41.05 960.088 40.25 961.788C38.95 964.388 38.75 974.588 38.75 1034.79C38.75 1094.99 38.95 1105.19 40.25 1107.79C41.05 1109.49 42.75 1111.49 43.95 1112.29C45.75 1113.49 49.35 1113.79 72.95 1113.79L79.75 1106.79V1074.79H118.75V1093.59C118.75 1106.99 118.35 1113.89 117.25 1118.09C116.45 1121.19 114.65 1125.49 113.35 1127.59C112.05 1129.59 109.45 1132.69 107.65 1134.49C105.75 1136.29 101.55 1138.99 92.25 1143.29H26.25L19.75 1140.09C16.05 1138.29 11.55 1135.09 9.35 1132.59C7.15 1130.29 4.25 1125.79 0.25 1117.29V1035.79C0.25 974.888 0.55 953.288 1.45 950.288C2.15 948.088 4.15 944.088 5.95 941.288C7.75 938.588 11.15 934.988 13.55 933.288Z" fill="#75EF42"/>
<path d="M212.25 930.488C214.45 929.388 217.35 928.088 218.75 927.688C220.15 927.288 237.25 926.988 292.25 927.288L297.15 929.788C299.85 931.188 303.85 934.088 306.05 936.288C308.25 938.488 311.15 942.588 315.25 950.288L315.75 1137.79H273.75V1072.79H236.75V1137.79H194.75L194.95 1044.59L194.952 1043.86C195.25 952.879 195.256 951.177 197.35 946.788C198.45 944.288 201.35 940.088 203.85 937.388C206.25 934.788 210.05 931.588 212.25 930.488Z" fill="#75EF42"/>
<path d="M413.35 933.988C416.05 931.688 420.05 929.088 422.25 928.288C425.25 927.288 432.75 926.888 451.45 926.888C473.15 926.788 477.55 927.088 482.55 928.588C485.65 929.588 490.25 931.788 492.75 933.388C495.25 935.088 498.85 938.488 500.85 940.888C502.85 943.288 505.45 947.088 506.55 949.288C507.65 951.488 509.25 955.788 510.15 958.788C511.05 961.788 512.15 968.888 513.25 984.788H473.75V975.788C473.75 967.288 473.65 966.688 471.05 964.288C468.35 961.788 467.75 961.688 455.95 961.788C444.15 961.788 443.55 961.888 441.25 964.288C438.75 966.788 438.75 966.888 438.75 987.088C438.75 1003.39 439.05 1007.69 440.25 1009.59C441.05 1010.79 442.75 1012.39 443.95 1012.99C445.483 1013.85 453.583 1014.45 468.25 1014.79C488.45 1015.29 490.65 1015.49 495.25 1017.59C497.95 1018.89 502.25 1021.59 504.65 1023.59C507.15 1025.59 510.55 1029.59 512.35 1032.29C514.15 1035.09 516.35 1039.79 517.25 1042.79C518.55 1047.39 518.75 1053.39 518.25 1112.29L515.05 1118.79C513.35 1122.39 509.95 1127.29 507.55 1129.69C505.25 1132.09 500.35 1135.49 490.25 1140.29L458.75 1140.59C439.45 1140.79 425.75 1140.59 423.25 1139.89C421.05 1139.39 417.05 1137.39 414.35 1135.59C411.05 1133.39 408.35 1130.49 403.25 1121.29L402.75 1078.79H439.75L439.95 1092.09C440.25 1102.79 440.55 1105.89 441.95 1108.09C442.95 1109.59 444.95 1111.59 446.45 1112.59C448.55 1113.89 451.35 1114.29 459.35 1114.29C468.25 1114.29 469.95 1113.99 472.45 1112.19C473.95 1110.99 476.15 1108.59 477.25 1106.69C479.05 1103.59 479.25 1101.49 479.25 1083.29C479.25 1065.09 479.05 1062.99 477.25 1059.89C476.15 1057.99 473.95 1055.59 472.45 1054.39C469.85 1052.39 468.05 1052.29 446.45 1051.79L446.153 1051.78C423.646 1051.29 423.131 1051.28 418.75 1048.69C416.25 1047.19 412.45 1044.09 410.25 1041.59C407.95 1038.99 405.45 1034.89 404.45 1031.69C402.85 1026.79 402.75 1022.49 403.25 948.288L405.85 943.288C407.25 940.588 410.65 936.388 413.35 933.988Z" fill="#75EF42"/>
<path d="M596.75 1137.79V1032.29V926.788H638.75V1017.29L675.75 1017.79V926.788H717.75V1137.79H675.75L675.25 1059.29L657.05 1059.09C646.95 1058.89 638.75 1059.09 638.75 1059.59V1137.79H596.75Z" fill="#75EF42"/>
<path d="M1635.75 3.78831C1643.75 2.68831 1654.55 1.28831 1659.75 0.788311C1664.95 0.288311 1682.95 0.0883106 1699.75 0.288311C1723.25 0.588311 1733.75 1.08831 1745.25 2.68831C1753.55 3.78831 1764.95 5.68831 1770.75 6.78831C1776.55 7.98831 1786.65 10.2883 1793.25 11.8883C1799.85 13.5883 1812.05 17.1883 1820.25 19.8883C1828.55 22.6883 1840.15 26.9883 1846.25 29.4883C1852.35 31.8883 1865.15 37.9883 1874.75 42.7883C1884.35 47.6883 1897.85 55.1883 1904.75 59.4883C1911.65 63.7883 1921.35 70.1883 1926.25 73.7883C1931.15 77.3883 1939.55 83.6883 1944.75 87.8883C1949.95 91.9883 1959.65 100.388 1966.25 106.388C1972.75 112.388 1983.45 123.188 1989.95 130.288C1996.45 137.388 2005.55 148.288 2010.25 154.288C2014.95 160.288 2022.75 171.188 2027.55 178.388C2032.35 185.588 2039.15 196.688 2049.25 214.688L2555.75 214.788L2509.25 274.288L2291.95 274.488C2172.55 274.688 2074.75 274.888 2074.75 274.988C2074.75 275.188 2075.65 277.988 2076.75 281.288C2077.95 284.588 2080.35 293.188 2082.15 300.288C2084.05 307.388 2085.75 314.488 2086.75 318.788H2280.25C2386.65 318.788 2473.65 319.188 2473.55 319.588C2473.35 320.088 2463.15 333.288 2428.25 377.888L2094.75 377.788V422.788L2392.85 423.288L2347.25 481.788H2086.75L2085.85 485.488C2085.35 487.588 2084.35 491.788 2083.75 494.788C2083.05 497.788 2081.05 505.288 2079.15 511.288C2077.35 517.288 2075.65 523.088 2075.35 523.988C2074.75 525.688 2080.85 525.788 2193.25 525.788C2271.95 525.788 2311.65 526.088 2311.55 526.788C2311.35 527.388 2301.15 540.788 2266.25 585.688L2049.25 585.788L2045.35 593.088C2043.25 596.988 2037.95 605.888 2033.75 612.788C2029.45 619.688 2021.25 631.588 2015.45 639.288C2009.75 646.988 2001.45 657.288 1997.15 662.288C1992.85 667.288 1985.45 675.288 1980.75 680.188C1976.05 684.988 1967.35 693.388 1961.25 698.788C1955.15 704.088 1945.75 711.988 1940.25 716.388C1934.75 720.688 1925.55 727.488 1919.75 731.388C1913.95 735.288 1904.55 741.288 1898.75 744.788C1892.95 748.288 1880.85 754.788 1871.75 759.388C1862.65 763.888 1848.95 770.088 1841.25 773.088C1833.55 776.088 1822.15 780.188 1815.95 782.188C1809.85 784.188 1798.55 787.388 1791.05 789.288C1783.45 791.188 1772.05 793.588 1765.75 794.688C1759.45 795.888 1748.65 797.488 1741.75 798.388C1734.35 799.288 1718.15 800.188 1701.75 800.488C1680.95 800.888 1670.25 800.588 1657.75 799.388C1648.65 798.588 1634.25 796.688 1625.75 795.188C1617.25 793.788 1603.95 790.988 1596.25 789.088C1588.55 787.188 1574.55 782.988 1565.25 779.788C1555.95 776.588 1542.85 771.588 1536.25 768.788C1529.65 765.988 1517.95 760.388 1510.25 756.388C1502.55 752.388 1489.85 745.088 1481.95 740.188C1474.05 735.288 1462.55 727.488 1456.25 722.788C1449.95 718.088 1440.05 710.188 1434.05 705.088C1428.15 700.088 1416.45 689.088 1408.25 680.588C1399.95 672.188 1389.35 660.588 1384.55 654.788C1379.85 648.988 1372.45 639.288 1368.15 633.288C1363.75 627.288 1357.05 617.088 1353.15 610.788C1349.25 604.488 1344.35 596.288 1338.75 585.788L1122.25 585.888L1099.55 556.788C1086.95 540.888 1076.75 527.288 1076.75 526.788C1076.75 526.088 1116.75 525.788 1194.75 525.788C1259.65 525.788 1312.75 525.588 1312.75 525.288C1312.75 524.988 1310.75 517.888 1308.45 509.488C1306.05 501.188 1303.45 491.488 1301.25 481.788L1040.45 481.288L994.75 422.788H1293.75L1293.25 378.288L959.35 377.288L913.95 319.288L1301.25 318.788L1303.05 311.088C1304.05 306.788 1306.65 297.088 1308.85 289.488L1309.35 287.688C1311.23 280.99 1312.75 275.564 1312.75 275.288C1312.75 274.988 1215.25 274.788 879.25 274.788L832.85 215.288L1338.75 214.788L1345.35 203.088C1348.95 196.588 1356.15 184.988 1361.25 177.288C1366.35 169.588 1375.45 157.188 1381.45 149.788C1387.35 142.388 1398.75 129.588 1406.75 121.388C1414.75 113.188 1426.25 102.288 1432.25 97.0883C1438.25 91.8883 1448.25 83.8883 1454.25 79.2883C1460.25 74.6883 1471.05 67.2883 1478.25 62.6883C1485.45 58.0883 1497.35 51.0883 1504.75 47.0883C1512.15 43.0883 1524.95 36.7883 1533.25 33.1883C1541.45 29.4883 1557.45 23.4883 1568.75 19.7883C1580.05 15.9883 1596.45 11.2883 1605.25 9.38831C1614.05 7.48831 1627.75 4.88831 1635.75 3.78831Z" fill="#D9D9D9"/>
<path d="M1235.25 932.788C1237.45 931.288 1241.25 929.288 1243.75 928.388C1247.55 927.088 1253.15 926.888 1281.75 927.088C1314.05 927.288 1315.45 927.388 1319.75 929.488C1322.25 930.688 1326.25 933.388 1328.65 935.488C1331.25 937.788 1334.25 941.788 1336.15 945.788C1339.24 952.179 1339.25 952.487 1339.75 985.639L1339.75 985.788H1300.75V975.288C1300.75 967.988 1300.25 963.888 1299.25 961.788C1298.45 960.088 1296.25 958.088 1294.25 957.288C1291.85 956.288 1287.35 955.788 1280.25 955.788C1272.35 955.788 1268.85 956.188 1266.15 957.488C1264.15 958.488 1261.85 960.488 1261.15 961.988C1259.95 964.288 1259.75 977.588 1260.25 1107.99L1266.75 1113.79H1293.95L1300.75 1106.79V1074.79H1339.75L1339.45 1095.99C1339.15 1113.99 1338.85 1118.09 1337.25 1122.29C1336.15 1124.99 1333.25 1129.49 1330.65 1132.29C1327.75 1135.49 1323.75 1138.39 1313.25 1143.29H1247.25L1240.75 1140.09C1237.05 1138.29 1232.55 1135.09 1230.35 1132.59C1228.15 1130.29 1225.25 1125.79 1221.25 1117.29V1035.79C1221.25 961.088 1221.35 953.888 1222.95 949.288C1223.95 946.488 1226.15 942.288 1227.95 939.888C1229.75 937.488 1233.05 934.288 1235.25 932.788Z" fill="#D9D9D9"/>
<path d="M1439.55 931.488C1442.35 929.988 1446.45 928.388 1448.55 927.888C1450.55 927.388 1464.25 926.988 1479.05 926.888C1503.25 926.788 1506.35 926.988 1511.75 928.788C1515.05 929.888 1519.65 931.988 1522.05 933.488C1524.35 934.988 1528.05 937.988 1530.25 940.288C1532.45 942.588 1535.45 946.688 1536.95 949.388C1538.45 952.088 1540.35 957.488 1541.15 961.288C1542.45 967.188 1542.75 979.088 1542.75 1034.79C1542.75 1090.49 1542.45 1102.39 1541.15 1108.29C1540.35 1112.09 1538.25 1117.89 1536.45 1121.19C1534.65 1124.39 1531.15 1128.99 1528.55 1131.39C1525.85 1133.79 1520.95 1137.09 1517.55 1138.79C1514.05 1140.39 1508.35 1142.19 1504.75 1142.69C1501.15 1143.29 1489.75 1143.79 1479.25 1143.79C1468.75 1143.79 1457.05 1143.29 1453.25 1142.69C1449.45 1142.19 1443.55 1140.39 1440.25 1138.79C1436.95 1137.29 1431.85 1133.59 1428.85 1130.59C1425.25 1127.09 1422.15 1122.79 1416.25 1110.29L1415.95 1037.29C1415.75 972.788 1415.95 963.688 1417.35 958.788C1418.25 955.788 1420.15 951.088 1421.55 948.388C1423.05 945.788 1426.55 941.388 1429.25 938.788C1432.05 936.188 1436.65 932.888 1439.55 931.488Z" fill="#D9D9D9"/>
<path d="M1636.75 931.988C1639.25 930.488 1642.85 928.788 1644.75 928.088C1647.35 927.188 1656.55 926.888 1680.25 927.088C1710.95 927.288 1712.45 927.388 1716.75 929.488C1719.25 930.688 1723.45 933.588 1726.15 935.988C1729.15 938.688 1732.15 942.688 1737.25 953.288L1737.75 1137.79H1697.75L1697.55 1051.89L1697.55 1051.08C1697.25 967.677 1697.24 965.88 1695.25 963.188C1694.15 961.788 1691.95 959.588 1690.45 958.388C1688.55 956.988 1685.65 956.188 1681.95 955.888C1678.75 955.688 1674.55 955.788 1672.55 956.188C1670.35 956.488 1667.25 958.088 1665.25 959.988C1662.55 962.488 1661.45 964.588 1660.65 968.288C1660.05 971.388 1659.85 1004.99 1660.25 1137.79H1619.75L1620.25 953.288L1622.85 947.788C1624.25 944.788 1626.95 940.588 1628.85 938.388C1630.75 936.288 1634.25 933.388 1636.75 931.988Z" fill="#D9D9D9"/>
<path d="M1830.75 935.688C1834.25 932.188 1837.95 929.488 1840.75 928.488C1844.35 927.288 1850.15 926.888 1870.25 926.888C1892.75 926.788 1895.95 926.988 1901.75 928.788C1905.35 929.888 1910.35 932.388 1913.05 934.288C1915.65 936.188 1919.15 939.688 1920.85 941.988C1922.55 944.388 1925.15 948.788 1926.55 951.788C1927.95 954.788 1929.65 960.688 1930.35 964.788C1931.05 968.888 1931.65 975.088 1931.75 984.788H1892.75V975.988C1892.85 967.788 1892.65 967.088 1890.05 964.488C1887.25 961.788 1887.05 961.688 1875.55 961.788C1869.05 961.788 1862.85 962.188 1861.75 962.788C1860.65 963.288 1859.05 965.388 1858.25 967.288C1857.15 969.888 1856.75 974.888 1856.75 987.288C1856.75 999.688 1857.15 1004.69 1858.25 1007.29C1859.05 1009.19 1860.95 1011.59 1862.45 1012.49C1864.75 1013.99 1868.45 1014.39 1887.25 1014.79C1908.55 1015.29 1909.45 1015.39 1914.75 1017.99C1917.75 1019.49 1922.45 1022.59 1925.15 1024.99C1928.35 1027.89 1931.15 1031.69 1937.25 1044.19V1112.29L1934.55 1117.99C1932.95 1121.19 1929.65 1126.09 1927.05 1128.89C1924.15 1131.99 1919.75 1135.19 1909.25 1140.29H1875.25C1843.35 1140.29 1841.05 1140.19 1837.25 1138.29C1835.05 1137.19 1831.65 1134.69 1829.75 1132.79C1827.85 1130.89 1825.35 1127.49 1824.25 1125.29C1822.45 1121.69 1822.25 1118.89 1821.75 1078.79H1858.75V1090.99C1858.75 1100.69 1859.15 1103.99 1860.55 1106.69C1861.45 1108.59 1863.55 1111.09 1865.05 1112.19C1867.45 1113.99 1869.35 1114.29 1878.05 1114.29C1886.95 1114.29 1888.65 1113.99 1891.55 1111.99C1893.25 1110.79 1895.45 1108.49 1896.25 1106.79C1897.45 1104.39 1897.75 1099.49 1897.75 1083.29C1897.75 1067.09 1897.45 1062.19 1896.25 1059.79C1895.45 1058.09 1893.25 1055.79 1891.55 1054.49C1888.45 1052.39 1887.05 1052.29 1865.25 1051.79C1844.45 1051.29 1841.85 1051.09 1838.25 1049.19C1836.05 1047.99 1832.05 1044.59 1829.45 1041.69C1826.25 1038.19 1824.15 1034.59 1823.15 1031.29C1822.05 1027.39 1821.75 1018.49 1821.75 989.288C1821.75 956.988 1821.95 951.588 1823.45 946.788C1824.75 942.688 1826.55 939.888 1830.75 935.688Z" fill="#D9D9D9"/>
<path d="M2594.25 930.488C2596.45 929.388 2599.35 928.088 2600.75 927.688C2602.15 927.288 2618.55 926.988 2637.25 927.088C2670.35 927.288 2671.35 927.388 2675.55 929.488C2677.85 930.788 2681.85 933.688 2684.35 935.988C2686.85 938.388 2690.15 942.788 2691.55 945.788C2694.15 950.988 2694.25 952.188 2694.75 985.788H2656.75V976.288C2656.75 970.088 2656.25 965.588 2655.25 963.288C2654.45 961.388 2652.25 958.888 2650.55 957.788C2647.75 956.088 2645.45 955.788 2635.75 955.788C2626.05 955.788 2623.75 956.088 2621.05 957.788C2619.25 958.888 2617.05 961.388 2616.25 963.288C2614.95 966.288 2614.75 976.388 2615.05 1036.49C2615.25 1099.79 2615.45 1106.49 2616.95 1108.79C2617.85 1110.19 2619.75 1111.89 2621.15 1112.49C2622.75 1113.29 2628.15 1113.79 2635.75 1113.79C2643.35 1113.79 2648.75 1113.29 2650.35 1112.49C2651.75 1111.89 2653.65 1110.19 2654.55 1108.79C2655.95 1106.79 2656.25 1103.29 2656.75 1074.79H2694.75V1094.49C2694.75 1108.99 2694.35 1115.59 2693.35 1119.29C2692.45 1121.99 2690.35 1126.49 2688.55 1129.19C2686.75 1131.89 2683.05 1135.59 2680.25 1137.39C2677.55 1139.29 2672.75 1141.39 2669.75 1142.19C2665.35 1143.39 2658.05 1143.59 2633.75 1143.49C2603.95 1143.29 2603.15 1143.19 2597.25 1140.79C2593.65 1139.29 2589.45 1136.59 2586.75 1133.79C2584.25 1131.29 2581.05 1126.99 2577.25 1119.29V1035.79C2577.25 955.588 2577.35 952.088 2579.15 947.288C2580.25 944.488 2583.15 940.088 2585.65 937.388C2588.15 934.788 2592.05 931.688 2594.25 930.488Z" fill="#D9D9D9"/>
<path d="M3080.35 934.288C3083.55 932.188 3088.75 929.588 3091.75 928.588C3096.55 927.088 3100.75 926.888 3125.75 927.088C3152.65 927.288 3154.55 927.388 3159.75 929.588C3162.75 930.788 3167.45 933.488 3170.25 935.488C3172.95 937.588 3176.85 941.488 3178.95 944.288C3181.05 946.988 3183.75 951.788 3187.25 960.288L3187.55 1032.79C3187.75 1097.09 3187.55 1105.89 3186.15 1110.79C3185.25 1113.79 3183.65 1118.09 3182.45 1120.29C3181.35 1122.49 3178.35 1126.49 3175.85 1129.19C3173.35 1131.89 3169.45 1135.19 3167.25 1136.59C3165.05 1137.99 3160.75 1139.99 3157.75 1141.09C3153.05 1142.79 3148.85 1143.09 3129.25 1143.59C3114.85 1143.89 3103.65 1143.59 3099.25 1142.89C3095.45 1142.29 3089.45 1140.49 3086.05 1138.79C3082.55 1137.19 3077.65 1133.79 3075.05 1131.39C3072.35 1128.99 3068.65 1123.99 3066.55 1120.19C3064.55 1116.39 3062.45 1110.59 3061.85 1107.29C3061.15 1103.29 3060.75 1078.59 3060.75 1034.79C3060.75 993.988 3061.15 966.188 3061.75 962.788C3062.35 959.788 3064.05 954.588 3065.75 951.288C3067.35 947.988 3069.95 943.688 3071.55 941.788C3073.15 939.888 3077.05 936.488 3080.35 934.288Z" fill="#D9D9D9"/>
<path d="M3286.75 931.888C3289.25 930.488 3292.85 928.788 3294.75 928.088C3297.35 927.188 3306.55 926.888 3362.25 927.288L3368.15 930.288C3371.35 931.988 3375.85 935.288 3378.15 937.788C3380.45 940.288 3383.35 944.588 3387.25 952.288L3387.75 1137.79H3347.75L3347.55 1051.89L3347.55 1051.08C3347.25 967.677 3347.24 965.88 3345.25 963.188C3344.15 961.788 3341.95 959.588 3340.45 958.388C3338.05 956.588 3336.25 956.288 3328.75 956.288C3321.35 956.288 3319.45 956.588 3317.05 958.388C3315.55 959.588 3313.35 961.988 3312.25 963.888C3310.25 967.188 3310.25 969.088 3310.25 1137.79H3269.75L3270.25 953.288L3272.55 948.288C3273.85 945.488 3276.55 941.288 3278.55 938.888C3280.55 936.488 3284.25 933.288 3286.75 931.888Z" fill="#D9D9D9"/>
<path d="M911.25 1025.99C910.05 1021.29 909.75 1012.19 909.75 975.288V930.288H948.75V1020.79H989.75V930.788H1028.75V1137.79H989.75V1059.79H968.75C951.35 1059.79 946.75 1059.49 942.05 1057.99C938.85 1056.99 934.25 1054.99 931.75 1053.59C929.25 1052.19 924.95 1048.59 922.15 1045.69C919.35 1042.69 916.05 1038.39 914.95 1035.99C913.75 1033.69 912.05 1029.19 911.25 1025.99Z" fill="#D9D9D9"/>
<path d="M2179.55 1034.99C2179.45 976.888 2179.85 931.788 2180.25 931.388C2180.75 930.988 2202.35 930.788 2275.25 931.288L2280.75 933.888C2283.75 935.288 2288.45 938.488 2291.15 940.888C2294.15 943.588 2297.15 947.788 2302.25 958.288L2302.55 978.788C2302.85 995.188 2302.65 1000.49 2301.35 1005.29C2300.45 1008.59 2298.15 1013.49 2296.25 1016.29C2294.35 1018.99 2290.85 1022.79 2288.45 1024.59C2286.15 1026.39 2283.95 1027.89 2283.55 1027.79C2283.05 1027.79 2282.75 1028.39 2282.75 1028.99C2282.65 1029.69 2284.15 1030.99 2285.85 1031.79C2287.65 1032.59 2290.45 1034.89 2292.25 1036.79C2294.25 1038.99 2295.85 1042.19 2296.55 1045.49C2297.35 1049.09 2297.75 1064.69 2297.75 1137.79H2258.75V1098.49C2258.85 1059.29 2258.85 1059.29 2256.55 1055.89C2255.25 1053.99 2252.95 1051.49 2251.45 1050.39C2249.35 1048.79 2247.15 1048.29 2242.95 1048.29C2239.15 1048.29 2236.15 1048.99 2233.95 1050.29C2232.15 1051.39 2229.65 1053.89 2228.45 1055.79C2226.35 1059.19 2226.25 1060.19 2225.75 1137.79H2179.75L2179.55 1034.99Z" fill="#D9D9D9"/>
<path d="M2382.25 1117.29L2381.95 1023.99L2381.75 930.788H2421.75V1015.99C2421.75 1095.19 2421.85 1101.49 2423.55 1104.79C2424.45 1106.69 2426.85 1109.29 2428.75 1110.59C2431.65 1112.49 2433.55 1112.89 2440.25 1112.89C2446.95 1112.89 2448.85 1112.49 2451.75 1110.59C2453.65 1109.29 2456.05 1106.69 2457.05 1104.79C2458.65 1101.49 2458.75 1095.19 2458.75 930.788H2498.75L2498.25 1117.29L2495.75 1122.29C2494.45 1124.99 2491.25 1129.29 2488.75 1131.79C2486.25 1134.29 2482.05 1137.49 2474.25 1141.29H2406.25L2401.25 1138.79C2398.55 1137.49 2394.25 1134.29 2391.75 1131.79C2389.25 1129.29 2386.05 1124.99 2382.25 1117.29Z" fill="#D9D9D9"/>
<path d="M2000.65 966.688V949.188V931.688H2117.65L2117.15 966.188L2080.65 966.688V1137.69H2037.65V966.688H2000.65Z" fill="#D9D9D9"/>
<path d="M2756.65 966.688V949.188V931.688H2872.65V966.688H2835.65V1137.69H2793.65V966.688H2756.65Z" fill="#D9D9D9"/>
<path d="M2941.65 1137.69V1034.69V931.688H2983.65V1137.69H2941.65Z" fill="#D9D9D9"/>
<path d="M1644.25 54.2883C1650.25 53.3883 1659.75 52.2883 1665.25 51.7883C1670.75 51.2883 1686.05 51.0883 1699.25 51.2883C1712.85 51.4883 1728.65 52.3883 1735.75 53.1883C1742.65 54.0883 1752.95 55.6883 1758.75 56.8883C1764.55 57.9883 1772.85 59.7883 1777.25 60.8883C1781.65 61.9883 1790.65 64.4883 1797.25 66.4883C1803.85 68.3883 1815.05 72.3883 1822.25 75.2883C1829.45 78.1883 1840.45 82.9883 1846.75 86.0883C1853.05 89.1883 1862.35 93.9883 1867.25 96.8883C1872.15 99.6883 1881.45 105.488 1887.75 109.588C1894.05 113.788 1904.85 121.688 1911.75 127.188C1918.65 132.688 1929.85 142.588 1936.65 149.288C1943.45 155.888 1952.95 165.788 1957.65 171.288C1962.45 176.788 1969.65 185.788 1973.85 191.288C1978.05 196.788 1984.85 206.688 1989.15 213.288C1993.35 219.888 2001.55 234.788 2007.25 246.288C2012.95 257.788 2019.45 272.388 2021.65 278.588C2023.95 284.688 2027.55 295.988 2029.75 303.488C2031.95 311.088 2035.15 323.788 2036.75 331.788C2038.35 339.788 2040.45 352.788 2041.35 360.788C2042.65 370.888 2043.15 382.888 2043.15 400.288C2043.15 417.888 2042.65 429.588 2041.35 439.788C2040.45 447.788 2038.55 459.888 2037.25 466.788C2035.85 473.688 2033.05 485.588 2030.85 493.288C2028.65 500.988 2025.35 511.788 2023.35 517.288C2021.45 522.788 2018.35 530.888 2016.45 535.288C2014.55 539.688 2011.05 547.288 2008.65 552.288C2006.35 557.288 2001.65 565.988 1998.45 571.788C1995.15 577.588 1989.05 587.488 1984.85 593.788C1980.65 600.088 1972.75 610.888 1967.35 617.788C1961.95 624.688 1949.75 637.988 1940.35 647.388C1930.95 656.788 1918.35 668.388 1912.25 673.188C1906.15 677.988 1895.65 685.688 1888.75 690.288C1881.85 694.888 1871.05 701.588 1864.75 705.188C1858.45 708.788 1847.45 714.388 1840.25 717.688C1833.05 720.988 1821.85 725.588 1815.25 728.088C1808.65 730.588 1797.65 734.188 1790.75 736.088C1783.85 737.988 1774.15 740.488 1769.25 741.688C1764.35 742.788 1754.45 744.688 1747.25 745.788C1740.05 746.888 1727.45 748.288 1719.25 748.888C1710.45 749.588 1695.95 749.788 1684.25 749.488C1673.25 749.188 1658.65 748.188 1651.75 747.288C1644.85 746.388 1633.65 744.588 1626.75 743.288C1619.85 741.888 1607.95 739.088 1600.25 736.888C1592.55 734.688 1583.05 731.788 1579.25 730.488C1575.45 729.188 1567.25 725.988 1561.25 723.588C1555.25 721.088 1544.65 716.188 1537.75 712.788C1530.85 709.388 1520.75 703.788 1515.25 700.488C1509.75 697.188 1500.95 691.588 1495.75 687.888C1490.55 684.288 1480.65 676.788 1473.75 671.288C1466.85 665.788 1455.35 655.488 1448.25 648.288C1441.05 641.188 1431.85 631.288 1427.65 626.288C1423.45 621.288 1416.55 612.488 1412.15 606.588C1407.85 600.688 1401.35 591.288 1397.85 585.588C1394.25 579.888 1388.35 569.488 1384.65 562.288C1380.85 555.088 1375.75 544.588 1373.25 538.788C1370.65 532.988 1366.35 521.788 1363.55 513.788C1360.85 505.788 1356.95 492.288 1354.75 483.788C1352.65 475.288 1350.05 462.488 1348.95 455.288C1347.75 448.088 1346.35 437.088 1345.75 430.788C1345.25 424.488 1344.75 410.788 1344.75 400.288C1344.75 389.788 1345.25 376.088 1345.75 369.788C1346.35 363.488 1347.95 351.588 1349.25 343.288C1350.65 335.088 1353.35 322.188 1355.25 314.788C1357.15 307.388 1360.65 295.688 1362.85 288.788C1365.15 281.888 1369.05 271.588 1371.45 265.788C1373.95 259.988 1378.65 249.888 1381.95 243.288C1385.35 236.688 1390.75 226.788 1394.05 221.288C1397.35 215.788 1402.95 206.988 1406.65 201.788C1410.25 196.588 1417.55 186.888 1422.85 180.288C1428.15 173.688 1437.85 162.888 1444.35 156.188C1450.95 149.488 1460.25 140.588 1465.25 136.288C1470.25 131.988 1479.45 124.688 1485.75 119.888C1492.05 115.188 1503.35 107.588 1510.75 102.988C1518.15 98.3883 1530.95 91.2883 1539.25 87.1883C1547.45 83.0883 1559.85 77.4883 1566.75 74.7883C1573.65 72.0883 1585.35 68.0883 1592.75 65.8883C1600.15 63.5883 1612.35 60.4883 1619.75 58.8883C1627.15 57.1883 1638.25 55.1883 1644.25 54.2883Z" fill="#010101"/>
<path d="M1462.05 962.788C1462.65 961.488 1464.75 959.388 1466.65 958.088C1469.55 956.188 1471.45 955.788 1478.45 955.788C1483.65 955.788 1488.05 956.388 1490.25 957.288C1492.25 958.088 1494.45 960.088 1495.25 961.788C1496.55 964.388 1496.75 974.688 1496.75 1106.79L1489.95 1113.79H1479.85C1472.85 1113.79 1468.85 1113.29 1466.75 1112.29C1465.05 1111.49 1463.05 1109.49 1462.25 1107.79C1460.95 1105.19 1460.75 1095.09 1460.75 1035.09C1460.75 981.688 1461.05 964.688 1462.05 962.788Z" fill="#010101"/>
<path d="M3108.35 960.888C3109.25 959.688 3111.35 957.988 3113.15 957.188C3114.95 956.488 3119.85 955.888 3124.75 955.788C3131.55 955.788 3133.95 956.188 3136.45 957.788C3138.25 958.888 3140.45 961.088 3141.25 962.788C3142.55 965.388 3142.75 975.488 3142.75 1034.79C3142.75 1098.49 3142.65 1104.09 3140.95 1107.39C3140.05 1109.39 3138.05 1111.69 3136.45 1112.39C3134.75 1113.29 3130.15 1113.79 3113.75 1113.79L3106.75 1106.79V1035.09C3106.75 970.488 3106.85 963.088 3108.35 960.888Z" fill="#010101"/>
<path d="M2226.25 1025.29L2225.95 991.588L2225.75 957.788H2235.95C2244.75 957.788 2246.85 958.088 2250.65 959.988C2253.25 961.388 2255.75 963.688 2256.85 965.788C2258.55 968.888 2258.75 971.688 2258.75 991.788C2258.75 1011.89 2258.55 1014.69 2256.85 1017.79C2255.75 1019.89 2253.25 1022.19 2250.65 1023.59C2246.75 1025.59 2245.05 1025.79 2226.25 1025.29Z" fill="#010101"/>
<path d="M236.65 1033.89V997.888V961.888H273.65V1033.89H236.65Z" fill="#010101"/>
<path d="M1661.25 120.888C1666.75 120.288 1672.85 119.688 1674.75 119.488C1676.65 119.288 1684.35 119.088 1691.75 118.988C1699.15 118.888 1710.65 119.288 1717.25 119.888C1723.85 120.388 1734.45 121.788 1740.75 122.888C1747.05 123.988 1757.45 126.188 1763.75 127.788C1770.05 129.388 1780.55 132.488 1787.05 134.688C1793.45 136.988 1803.35 140.888 1808.95 143.388C1814.65 145.888 1823.75 150.488 1829.25 153.488C1834.75 156.488 1844.15 162.288 1850.25 166.288C1856.35 170.388 1865.05 176.688 1869.75 180.488C1874.45 184.188 1884.55 193.488 1892.35 201.288C1900.15 208.988 1909.85 219.588 1913.95 224.788C1918.15 229.988 1924.85 239.288 1928.85 245.288C1932.95 251.388 1939.75 263.088 1943.95 271.288C1948.15 279.588 1953.65 291.488 1956.15 297.788C1958.65 304.088 1962.15 314.688 1964.05 321.288C1965.95 327.888 1968.45 337.788 1969.65 343.288C1970.75 348.788 1972.35 358.488 1973.15 364.788C1973.95 371.088 1974.95 382.388 1975.25 389.788C1975.65 397.388 1975.45 409.788 1974.85 418.288C1974.25 426.488 1972.85 438.688 1971.75 445.288C1970.75 451.888 1968.25 463.388 1966.35 470.788C1964.45 478.188 1960.95 489.688 1958.65 496.288C1956.25 502.888 1950.45 516.188 1945.65 525.788C1940.85 535.388 1933.45 548.488 1929.25 554.788C1925.05 561.088 1918.15 570.588 1914.05 575.788C1909.85 580.988 1899.65 592.088 1891.35 600.288C1883.05 608.588 1871.05 619.188 1864.75 623.988C1858.45 628.688 1848.75 635.388 1843.25 638.888C1837.75 642.388 1827.85 647.888 1821.25 651.288C1814.65 654.688 1804.35 659.388 1798.25 661.688C1792.15 664.088 1782.35 667.588 1776.25 669.388C1770.15 671.288 1758.95 674.088 1751.25 675.688C1743.55 677.288 1732.55 679.188 1726.75 679.988C1720.35 680.788 1706.75 681.288 1692.25 681.188C1672.85 681.088 1665.45 680.688 1653.75 678.888C1645.75 677.688 1632.45 674.888 1624.25 672.788C1615.95 670.688 1603.45 666.788 1596.25 664.188C1589.05 661.588 1576.05 655.788 1567.25 651.288C1558.45 646.888 1547.25 640.588 1542.25 637.388C1537.25 634.088 1529.65 628.788 1525.25 625.488C1520.85 622.188 1513.85 616.488 1509.75 612.988C1505.65 609.388 1497.85 601.988 1492.35 596.388C1486.95 590.788 1479.25 582.188 1475.25 577.288C1471.15 572.288 1464.05 562.488 1459.25 555.288C1454.45 548.088 1446.55 534.188 1441.75 524.288C1436.85 514.388 1430.85 500.488 1428.45 493.288C1425.95 486.088 1422.55 474.488 1420.75 467.288C1419.05 460.088 1416.65 448.488 1415.55 441.288C1414.45 433.788 1413.35 419.988 1413.05 408.788C1412.65 396.588 1412.95 384.388 1413.65 376.288C1414.35 369.088 1415.75 358.088 1416.85 351.788C1417.95 345.488 1420.15 335.288 1421.75 329.288C1423.35 323.188 1426.45 312.888 1428.75 306.288C1431.05 299.688 1436.65 286.588 1441.25 277.288C1445.85 267.888 1452.15 256.188 1455.25 251.288C1458.35 246.288 1464.05 237.988 1467.95 232.788C1471.95 227.588 1479.25 218.588 1484.35 212.788C1489.45 206.988 1497.25 198.888 1501.85 194.788C1506.35 190.688 1512.85 184.988 1516.15 182.288C1519.55 179.488 1526.05 174.488 1530.75 171.188C1535.45 167.788 1543.85 162.288 1549.55 158.888C1555.15 155.488 1564.15 150.588 1569.45 147.888C1574.85 145.188 1584.45 140.988 1590.75 138.488C1597.05 135.988 1607.65 132.388 1614.25 130.488C1620.85 128.588 1631.85 125.888 1638.75 124.488C1645.65 123.088 1655.75 121.488 1661.25 120.888Z" fill="#75EF42"/>
<path d="M1680.75 288.788V271.788V254.788H1712.85L1713.25 289.188L1720.75 290.488C1724.85 291.188 1731.85 292.788 1736.25 294.188C1740.65 295.588 1747.45 298.088 1751.25 299.788C1755.05 301.588 1761.45 304.988 1765.25 307.488C1769.05 309.988 1774.65 313.988 1777.45 316.388C1780.35 318.788 1782.75 321.288 1782.75 321.788C1782.75 322.288 1776.95 331.088 1769.75 341.288C1762.55 351.488 1756.55 359.788 1756.25 359.788C1755.95 359.788 1753.85 358.088 1751.45 355.988C1749.05 353.988 1743.95 350.388 1740.15 348.088C1736.35 345.788 1729.85 342.588 1725.75 340.888C1721.65 339.288 1717.05 337.688 1712.75 336.788L1713.25 387.188L1716.75 388.188C1718.65 388.688 1724.95 390.688 1730.75 392.488C1736.55 394.388 1745.55 398.188 1750.75 400.888C1755.95 403.588 1762.75 407.688 1765.75 410.188C1768.75 412.588 1773.15 416.988 1775.45 419.888C1777.75 422.888 1780.75 427.488 1782.15 430.288C1783.55 432.988 1785.55 438.888 1786.75 443.288C1788.15 448.688 1788.75 454.388 1788.75 460.988C1788.75 466.388 1788.05 474.288 1787.15 478.488C1786.25 482.788 1784.45 488.988 1783.15 492.288C1781.75 495.588 1779.25 500.488 1777.45 503.288C1775.75 505.988 1772.05 510.688 1769.25 513.688C1766.55 516.588 1761.75 520.688 1758.75 522.788C1755.75 524.788 1750.95 527.688 1748.25 528.988C1745.45 530.388 1739.65 532.688 1735.25 534.088C1730.85 535.388 1723.95 537.088 1712.75 538.788V571.788H1680.75V538.788L1675.95 538.188C1673.35 537.888 1667.85 536.888 1663.75 536.088C1659.65 535.288 1652.85 533.488 1648.75 532.088C1644.65 530.788 1637.65 527.888 1633.25 525.788C1628.85 523.588 1622.05 519.688 1618.25 516.988C1614.45 514.288 1608.65 509.788 1605.45 506.988C1602.35 504.088 1599.75 501.288 1599.75 500.788C1599.75 500.288 1605.55 490.988 1625.75 460.788L1632.45 466.988C1636.25 470.388 1642.45 475.188 1646.25 477.688C1650.05 480.188 1656.05 483.388 1659.45 484.988C1662.95 486.488 1668.75 488.688 1672.45 489.688C1676.25 490.788 1679.65 491.388 1680.05 490.988C1680.45 490.588 1680.75 477.788 1680.75 434.788L1676.55 433.788C1674.15 433.188 1667.95 431.288 1662.75 429.588C1657.55 427.988 1648.75 424.288 1643.25 421.488C1635.25 417.388 1631.65 414.688 1625.15 408.288C1618.85 402.088 1616.25 398.588 1613.45 392.788C1611.45 388.688 1609.15 381.788 1608.35 377.588C1607.45 373.288 1606.75 366.388 1606.75 362.288C1606.75 358.188 1607.45 351.488 1608.35 347.588C1609.15 343.588 1610.85 338.088 1611.95 335.288C1613.15 332.588 1615.95 327.388 1618.25 323.788C1620.55 320.188 1625.15 314.788 1628.35 311.688C1631.55 308.588 1636.95 304.388 1640.25 302.288C1643.55 300.188 1648.95 297.288 1652.25 295.988C1655.55 294.588 1660.95 292.788 1664.25 291.788C1667.55 290.888 1672.65 289.788 1680.75 288.788Z" fill="#010101"/>
<path d="M1666.05 340.088C1667.85 338.788 1671.05 337.088 1673.25 336.288C1675.45 335.488 1678.05 334.888 1679.05 334.788C1680.65 334.788 1680.75 336.488 1680.75 356.288C1680.75 368.088 1680.45 377.988 1680.05 378.188C1679.55 378.388 1676.35 377.288 1672.75 375.588C1669.15 373.988 1664.75 371.588 1663.05 370.188C1661.15 368.888 1659.05 365.888 1658.15 363.588C1657.08 360.722 1656.75 357.788 1657.15 354.788C1657.45 352.288 1658.85 348.488 1660.35 346.288C1661.75 344.088 1664.25 341.288 1666.05 340.088Z" fill="#75EF42"/>
<path d="M1712.75 491.788V467.788C1712.75 452.488 1713.15 443.788 1713.75 443.788C1714.35 443.788 1717.55 444.888 1721.05 446.288C1724.45 447.588 1729.25 450.488 1731.65 452.488C1734.05 454.588 1736.65 457.488 1737.35 458.988C1738.15 460.588 1738.75 463.988 1738.75 466.788C1738.75 469.488 1738.05 473.488 1737.15 475.488C1736.35 477.588 1734.25 480.788 1732.45 482.688C1730.65 484.488 1726.55 487.288 1723.25 488.888C1719.95 490.488 1716.25 491.788 1712.75 491.788Z" fill="#75EF42"/>
</svg>
