 <svg
                      
                      width="20"
                      height="11"
                      viewBox="0 0 20 11"
                      fill="none"
                      xmlns="http://www.w3.org/2000/svg">
                      <path
                        d="M9.99997 7C6.91464 7 4.74797 5.464 3.32931 3.888C2.55411 3.02086 1.90383 2.04971 1.39731 1.00267C1.3602 0.923364 1.32464 0.843349 1.29064 0.762665L1.28531 0.753332V0.751999L0.66664 0.999999L0.0479736 1.248V1.25067L0.0519736 1.256C0.0630756 1.28418 0.0746326 1.31219 0.0866403 1.34L0.19064 1.57067C0.752633 2.73514 1.47523 3.815 2.33731 4.77867C3.91997 6.536 6.41864 8.33333 9.99997 8.33333V7ZM19.3333 0.999999C19.1268 0.918081 18.9206 0.835414 18.7146 0.751999L18.7106 0.762665L18.6906 0.809332L18.6026 1.00267C18.0961 2.04969 17.4458 3.02084 16.6706 3.888C15.2533 5.464 13.0853 7 9.99997 7V8.33333C13.5813 8.33333 16.0813 6.536 17.6626 4.77867C18.5247 3.81502 19.2473 2.73515 19.8093 1.57067C19.8577 1.46675 19.9039 1.36184 19.948 1.256L19.9506 1.25067V1.24933H19.952L19.3333 0.999999ZM10.6666 11V7.66667H9.33331V11H10.6666ZM1.80531 8.80533L4.47197 6.13867L3.52797 5.19466L0.861307 7.86133L1.80531 8.80533ZM15.528 6.13867L18.1946 8.80533L19.1386 7.86133L16.472 5.19466L15.528 6.13867Z"
                        fill="#C2C2C2" />
                    </svg>