 <svg
                      width="20"
                      height="16"
                      viewBox="0 0 20 16"
                      fill="none"
                      xmlns="http://www.w3.org/2000/svg">
                      <path
                        d="M0.666634 8.00008L0.0479669 7.75208C-0.0158262 7.91126 -0.0158262 8.0889 0.0479669 8.24808L0.666634 8.00008ZM19.3333 8.00008L19.952 8.24808C20.0158 8.0889 20.0158 7.91126 19.952 7.75208L19.3333 8.00008ZM9.99997 14.0001C6.91463 14.0001 4.74797 12.4641 3.3293 10.8881C2.5541 10.0209 1.90382 9.04979 1.3973 8.00275C1.36019 7.92345 1.32463 7.84343 1.29063 7.76275L1.2853 7.75342V7.75208L0.666634 8.00008L0.0479669 8.24808V8.25075L0.0519669 8.25608C0.0630688 8.28427 0.0746259 8.31227 0.0866336 8.34008L0.190634 8.57075C0.752642 9.73521 1.47524 10.8151 2.3373 11.7787C3.91997 13.5361 6.41863 15.3334 9.99997 15.3334V14.0001ZM0.666634 8.00008L1.2853 8.24808L1.29063 8.23741C1.32317 8.15611 1.35875 8.07605 1.3973 7.99742C1.90382 6.95038 2.5541 5.97922 3.3293 5.11208C4.74663 3.53608 6.91463 2.00008 9.99997 2.00008V0.666748C6.41863 0.666748 3.91863 2.46408 2.3373 4.22141C1.47523 5.18508 0.752627 6.26494 0.190634 7.42941C0.142181 7.53331 0.095948 7.63822 0.0519669 7.74408L0.0493003 7.74941V7.75075H0.0466336L0.666634 8.00008ZM9.99997 2.00008C13.0853 2.00008 15.252 3.53608 16.6706 5.11208C17.4458 5.97924 18.0961 6.95039 18.6026 7.99742C18.6399 8.07666 18.6754 8.15668 18.7093 8.23741L18.7146 8.24675V8.24808L19.3333 8.00008L19.952 7.75208V7.74941L19.948 7.74408C19.9379 7.7155 19.9263 7.68746 19.9133 7.66008C19.7564 7.30846 19.5829 6.96452 19.3933 6.62942C18.9044 5.767 18.3242 4.95969 17.6626 4.22141C16.08 2.46408 13.5813 0.666748 9.99997 0.666748V2.00008ZM19.3333 8.00008C19.1268 7.91816 18.9206 7.8355 18.7146 7.75208L18.7106 7.76275L18.6906 7.80941L18.6026 8.00275C18.0961 9.04977 17.4458 10.0209 16.6706 10.8881C15.2533 12.4641 13.0853 14.0001 9.99997 14.0001V15.3334C13.5813 15.3334 16.0813 13.5361 17.6626 11.7801C18.5248 10.816 19.2474 9.7357 19.8093 8.57075C19.8577 8.46684 19.9039 8.36193 19.948 8.25608L19.9506 8.25075V8.24941H19.952L19.3333 8.00008ZM9.99997 10.0001C9.46953 10.0001 8.96083 9.78937 8.58575 9.4143C8.21068 9.03922 7.99997 8.53051 7.99997 8.00008H6.66663C6.66663 8.88414 7.01782 9.73198 7.64294 10.3571C8.26807 10.9822 9.11591 11.3334 9.99997 11.3334V10.0001ZM12 8.00008C12 8.53051 11.7893 9.03922 11.4142 9.4143C11.0391 9.78937 10.5304 10.0001 9.99997 10.0001V11.3334C10.884 11.3334 11.7319 10.9822 12.357 10.3571C12.9821 9.73198 13.3333 8.88414 13.3333 8.00008H12ZM9.99997 6.00008C10.5304 6.00008 11.0391 6.21079 11.4142 6.58587C11.7893 6.96094 12 7.46965 12 8.00008H13.3333C13.3333 7.11603 12.9821 6.26818 12.357 5.64306C11.7319 5.01794 10.884 4.66675 9.99997 4.66675V6.00008ZM9.99997 4.66675C9.11591 4.66675 8.26807 5.01794 7.64294 5.64306C7.01782 6.26818 6.66663 7.11603 6.66663 8.00008H7.99997C7.99997 7.46965 8.21068 6.96094 8.58575 6.58587C8.96083 6.21079 9.46953 6.00008 9.99997 6.00008V4.66675Z"
                        fill="#484848" />
                    </svg>