<svg width="19" height="20" viewBox="0 0 19 20" fill="none" xmlns="http://www.w3.org/2000/svg">
<path d="M7.50469 8.37891C7.25371 8.61277 7.05241 8.89479 6.91279 9.20814C6.77317 9.52149 6.6981 9.85975 6.69205 10.2027C6.686 10.5457 6.74909 10.8864 6.87757 11.2045C7.00605 11.5226 7.19728 11.8115 7.43985 12.0541C7.68242 12.2967 7.97136 12.4879 8.28944 12.6164C8.60752 12.7449 8.94822 12.808 9.29121 12.8019C9.63421 12.7959 9.97247 12.7208 10.2858 12.5812C10.5992 12.4415 10.8812 12.2402 11.1151 11.9893" stroke="black" stroke-width="1.5" stroke-linecap="round" stroke-linejoin="round"/>
<path d="M8.22852 4.29175C8.58726 4.24706 8.9484 4.22431 9.30992 4.22363C15.2704 4.22363 17.8249 10.1841 17.8249 10.1841C17.4442 10.9991 16.9668 11.7653 16.4029 12.4662" stroke="black" stroke-width="1.5" stroke-linecap="round" stroke-linejoin="round"/>
<path d="M4.72034 5.59473C3.02692 6.74819 1.67186 8.33252 0.794922 10.1843C0.794922 10.1843 3.34942 16.1448 9.30992 16.1448C10.9413 16.1492 12.5378 15.6723 13.8995 14.7739" stroke="black" stroke-width="1.5" stroke-linecap="round" stroke-linejoin="round"/>
<path d="M0.794922 1.66895L17.8249 18.6989" stroke="black" stroke-width="1.5" stroke-linecap="round" stroke-linejoin="round"/>
</svg>
