<svg width="156" height="54" viewBox="0 0 156 54" fill="none" xmlns="http://www.w3.org/2000/svg">
<path d="M0.74029 43.6174C0.85035 43.544 1.03378 43.4432 1.15302 43.4019C1.34104 43.3331 1.57033 43.3239 2.8452 43.3193C4.19802 43.3193 4.34477 43.3285 4.56489 43.4065C4.70705 43.4615 4.90883 43.5899 5.04641 43.7183C5.19315 43.8559 5.33073 44.0393 5.41328 44.2136C5.53251 44.475 5.54168 44.5254 5.56461 46.025H3.77613V45.5435C3.77613 45.2087 3.7532 45.0207 3.70734 44.9244C3.67065 44.8464 3.56976 44.7547 3.47805 44.718C3.36798 44.6722 3.16162 44.6492 2.83603 44.6492C2.51043 44.6492 2.30407 44.6722 2.19401 44.718C2.10229 44.7547 2.0014 44.8464 1.96471 44.9244C1.9051 45.0436 1.89593 45.5114 1.89593 48.2721C1.89593 51.0327 1.9051 51.5005 1.96471 51.6197C2.0014 51.6977 2.07936 51.7894 2.13439 51.8261C2.21694 51.8811 2.38203 51.8949 3.46429 51.8949L3.77613 51.5739V50.1064H5.56461V50.9685C5.56461 51.583 5.54627 51.8995 5.49582 52.0921C5.45913 52.2342 5.37659 52.4314 5.31697 52.5277C5.25736 52.6195 5.13812 52.7616 5.05558 52.8442C4.96845 52.9267 4.77584 53.0505 4.34936 53.2477H1.32269L1.02461 53.101C0.854936 53.0184 0.648573 52.8717 0.547684 52.757C0.446795 52.6516 0.313805 52.4452 0.130371 52.0554V48.3179C0.130371 45.5251 0.144129 44.5346 0.185401 44.397C0.217502 44.2961 0.309219 44.1127 0.391765 43.9843C0.47431 43.8605 0.630229 43.6954 0.74029 43.6174Z" fill="#75EF42"/>
<path d="M9.85238 43.489C9.95327 43.4386 10.0863 43.379 10.1505 43.3606C10.2147 43.3423 10.9988 43.3285 13.5211 43.3423L13.7458 43.4569C13.8696 43.5211 14.053 43.6541 14.1539 43.755C14.2548 43.8559 14.3878 44.0439 14.5758 44.397L14.5987 52.9955H12.6727V50.0147H10.9759V52.9955H9.04986L9.05903 48.7215L9.05914 48.6881C9.07279 44.5158 9.07304 44.4377 9.16909 44.2365C9.21954 44.1219 9.35253 43.9293 9.46717 43.8054C9.57723 43.6862 9.7515 43.5395 9.85238 43.489Z" fill="#75EF42"/>
<path d="M19.0745 43.6495C19.1984 43.544 19.3818 43.4248 19.4827 43.3881C19.6203 43.3423 19.9642 43.3239 20.8218 43.3239C21.8169 43.3193 22.0187 43.3331 22.2479 43.4019C22.3901 43.4477 22.6011 43.5486 22.7157 43.622C22.8304 43.7 22.9954 43.8559 23.0872 43.9659C23.1789 44.076 23.2981 44.2503 23.3486 44.3512C23.399 44.452 23.4724 44.6492 23.5136 44.7868C23.5549 44.9244 23.6054 45.25 23.6558 45.9791H21.8444V45.5664C21.8444 45.1766 21.8398 45.1491 21.7206 45.039C21.5968 44.9244 21.5692 44.9198 21.0281 44.9244C20.487 44.9244 20.4595 44.929 20.354 45.039C20.2393 45.1537 20.2393 45.1583 20.2393 46.0846C20.2393 46.8321 20.2531 47.0293 20.3081 47.1164C20.3448 47.1715 20.4228 47.2448 20.4778 47.2723C20.5481 47.3121 20.9196 47.3396 21.5922 47.3549C22.5185 47.3778 22.6194 47.387 22.8304 47.4833C22.9542 47.5429 23.1514 47.6667 23.2614 47.7584C23.3761 47.8502 23.532 48.0336 23.6145 48.1574C23.6971 48.2858 23.798 48.5014 23.8392 48.6389C23.8989 48.8499 23.908 49.125 23.8851 51.8261L23.7384 52.1242C23.6604 52.2893 23.5045 52.514 23.3944 52.624C23.2889 52.7341 23.0642 52.89 22.6011 53.1101L21.1565 53.1239C20.2714 53.1331 19.6432 53.1239 19.5285 53.0918C19.4276 53.0689 19.2442 52.9771 19.1204 52.8946C18.9691 52.7937 18.8452 52.6607 18.6114 52.2388L18.5884 50.2898H20.2852L20.2944 50.8998C20.3081 51.3904 20.3219 51.5326 20.3861 51.6335C20.432 51.7023 20.5237 51.794 20.5925 51.8399C20.6888 51.8995 20.8172 51.9178 21.184 51.9178C21.5922 51.9178 21.6701 51.9041 21.7848 51.8215C21.8536 51.7665 21.9545 51.6564 22.0049 51.5693C22.0874 51.4271 22.0966 51.3308 22.0966 50.4962C22.0966 49.6616 22.0874 49.5653 22.0049 49.4231C21.9545 49.336 21.8536 49.2259 21.7848 49.1709C21.6655 49.0792 21.583 49.0746 20.5925 49.0517L20.5788 49.0514C19.5467 49.0287 19.5231 49.0282 19.3222 48.9095C19.2075 48.8407 19.0333 48.6985 18.9324 48.5839C18.8269 48.4647 18.7123 48.2766 18.6664 48.1299C18.593 47.9052 18.5884 47.708 18.6114 44.3053L18.7306 44.076C18.7948 43.9522 18.9507 43.7596 19.0745 43.6495Z" fill="#75EF42"/>
<path d="M27.485 52.9955V48.1574V43.3193H29.4111V47.4695L31.1078 47.4925V43.3193H33.0339V52.9955H31.1078L31.0849 49.3956L30.2503 49.3864C29.7871 49.3773 29.4111 49.3864 29.4111 49.4094V52.9955H27.485Z" fill="#75EF42"/>
<path d="M75.1321 0.992145C75.499 0.9417 75.9942 0.877498 76.2327 0.854569C76.4712 0.83164 77.2966 0.822468 78.067 0.83164C79.1447 0.845397 79.6262 0.868326 80.1536 0.9417C80.5342 0.992145 81.057 1.07928 81.323 1.12972C81.589 1.18475 82.0521 1.29023 82.3548 1.3636C82.6575 1.44156 83.217 1.60665 83.593 1.73047C83.9736 1.85887 84.5056 2.05606 84.7853 2.17071C85.0651 2.28077 85.652 2.56051 86.0923 2.78063C86.5325 3.00534 87.1516 3.34927 87.468 3.54647C87.7845 3.74366 88.2293 4.03715 88.454 4.20224C88.6787 4.36733 89.0639 4.65624 89.3024 4.84885C89.5408 5.03687 89.9857 5.42208 90.2883 5.69723C90.5864 5.97238 91.0771 6.46766 91.3752 6.79325C91.6733 7.11885 92.0906 7.61871 92.3061 7.89386C92.5217 8.16901 92.8793 8.66887 93.0995 8.99905C93.3196 9.32923 93.6314 9.83826 94.0946 10.6637L117.322 10.6683L115.19 13.3969L105.224 13.4061C99.749 13.4152 95.264 13.4244 95.264 13.429C95.264 13.4382 95.3053 13.5666 95.3557 13.7179C95.4107 13.8692 95.5208 14.2636 95.6034 14.5892C95.6905 14.9148 95.7684 15.2404 95.8143 15.4376H104.688C109.567 15.4376 113.557 15.4559 113.552 15.4743C113.543 15.4972 113.075 16.1025 111.475 18.1478L96.1812 18.1432V20.2069L109.852 20.2298L107.76 22.9125H95.8143L95.773 23.0822C95.7501 23.1785 95.7042 23.3711 95.6767 23.5087C95.6446 23.6463 95.5529 23.9902 95.4658 24.2654C95.3832 24.5405 95.3053 24.8065 95.2915 24.8478C95.264 24.9257 95.5437 24.9303 100.698 24.9303C104.307 24.9303 106.128 24.9441 106.123 24.9762C106.114 25.0037 105.646 25.6182 104.046 27.6772L94.0946 27.6818L93.9158 28.0166C93.8195 28.1954 93.5764 28.6036 93.3838 28.92C93.1866 29.2364 92.8106 29.7821 92.5446 30.1353C92.2832 30.4884 91.9026 30.9607 91.7054 31.19C91.5082 31.4193 91.1688 31.7862 90.9533 32.0109C90.7378 32.231 90.3388 32.6162 90.0591 32.8638C89.7793 33.1069 89.3482 33.4692 89.096 33.671C88.8438 33.8681 88.4219 34.18 88.1559 34.3588C87.8899 34.5377 87.4589 34.8128 87.1929 34.9733C86.9269 35.1338 86.372 35.4319 85.9547 35.6429C85.5374 35.8492 84.9091 36.1336 84.556 36.2711C84.2029 36.4087 83.6801 36.5967 83.3958 36.6884C83.1161 36.7802 82.5979 36.9269 82.2539 37.014C81.9054 37.1012 81.3826 37.2112 81.0937 37.2617C80.8048 37.3167 80.3095 37.3901 79.9931 37.4314C79.6537 37.4726 78.9108 37.5139 78.1588 37.5277C77.2049 37.546 76.7142 37.5322 76.141 37.4772C75.7237 37.4405 75.0633 37.3534 74.6735 37.2846C74.2837 37.2204 73.6738 37.092 73.3207 37.0049C72.9676 36.9177 72.3255 36.7251 71.8991 36.5784C71.4726 36.4316 70.8718 36.2023 70.5692 36.0739C70.2665 35.9455 69.73 35.6887 69.3768 35.5053C69.0237 35.3219 68.4413 34.9871 68.079 34.7624C67.7168 34.5377 67.1894 34.18 66.9005 33.9644C66.6116 33.7489 66.1576 33.3866 65.8824 33.1527C65.6119 32.9235 65.0753 32.419 64.6993 32.0292C64.3186 31.644 63.8325 31.112 63.6124 30.8461C63.3969 30.5801 63.0575 30.1353 62.8603 29.8601C62.6586 29.585 62.3513 29.1172 62.1725 28.8283C61.9936 28.5394 61.7689 28.1633 61.5121 27.6818L51.5837 27.6864L50.5427 26.3519C49.9649 25.6228 49.4972 24.9991 49.4972 24.9762C49.4972 24.9441 51.3315 24.9303 54.9085 24.9303C57.8847 24.9303 60.3198 24.9211 60.3198 24.9074C60.3198 24.8936 60.2281 24.568 60.1226 24.1828C60.0125 23.8022 59.8933 23.3574 59.7924 22.9125L47.8325 22.8896L45.7368 20.2069H59.4485L59.4255 18.1662L44.1134 18.1203L42.0314 15.4605L59.7924 15.4376L59.8749 15.0845C59.9208 14.8873 60.04 14.4425 60.1409 14.0939L60.1642 14.0108C60.2502 13.7039 60.3198 13.4554 60.3198 13.4427C60.3198 13.429 55.8486 13.4198 40.4401 13.4198L38.3123 10.6912L61.5121 10.6683L61.8148 10.1318C61.9799 9.83367 62.31 9.30171 62.5439 8.9486C62.7778 8.59549 63.1951 8.02685 63.4703 7.68749C63.7408 7.34814 64.2636 6.76115 64.6305 6.38511C64.9974 6.00907 65.5247 5.50921 65.7999 5.27075C66.075 5.03228 66.5336 4.66541 66.8088 4.45447C67.0839 4.24352 67.5792 3.90416 67.9094 3.69321C68.2395 3.48226 68.7853 3.16125 69.1246 2.97782C69.464 2.79439 70.051 2.50548 70.4316 2.34039C70.8076 2.17071 71.5414 1.89556 72.0596 1.72588C72.5778 1.55162 73.3298 1.33608 73.7334 1.24895C74.137 1.16182 74.7652 1.04259 75.1321 0.992145Z" fill="#D9D9D9"/>
<path d="M56.7657 43.5947C56.8666 43.526 57.0409 43.4342 57.1555 43.393C57.3298 43.3333 57.5866 43.3242 58.8982 43.3333C60.3794 43.3425 60.4436 43.3471 60.6408 43.4434C60.7554 43.4984 60.9389 43.6223 61.0489 43.7186C61.1682 43.824 61.3057 44.0075 61.3929 44.1909C61.5348 44.484 61.535 44.4981 61.5579 46.0185L61.558 46.0252H59.7695V45.5437C59.7695 45.209 59.7465 45.0209 59.7007 44.9246C59.664 44.8467 59.5631 44.755 59.4714 44.7183C59.3613 44.6724 59.155 44.6495 58.8294 44.6495C58.4671 44.6495 58.3066 44.6678 58.1828 44.7274C58.091 44.7733 57.9856 44.865 57.9535 44.9338C57.8984 45.0393 57.8893 45.6492 57.9122 51.6292L58.2103 51.8951H59.4576L59.7695 51.5741V50.1067H61.558L61.5442 51.0789C61.5304 51.9043 61.5167 52.0923 61.4433 52.2849C61.3929 52.4088 61.2599 52.6151 61.1406 52.7435C61.0077 52.8903 60.8242 53.0233 60.3427 53.248H57.316L57.018 53.1012C56.8483 53.0187 56.6419 52.8719 56.541 52.7573C56.4401 52.6518 56.3072 52.4454 56.1237 52.0556V48.3182C56.1237 44.8925 56.1283 44.5624 56.2017 44.3514C56.2475 44.223 56.3484 44.0304 56.431 43.9203C56.5135 43.8103 56.6648 43.6635 56.7657 43.5947Z" fill="#D9D9D9"/>
<path d="M66.1346 43.5351C66.263 43.4663 66.4511 43.393 66.5474 43.37C66.6391 43.3471 67.2673 43.3288 67.9461 43.3242C69.0558 43.3196 69.198 43.3288 69.4456 43.4113C69.597 43.4618 69.8079 43.5581 69.918 43.6268C70.0234 43.6956 70.1931 43.8332 70.294 43.9387C70.3949 44.0442 70.5325 44.2322 70.6013 44.356C70.6701 44.4798 70.7572 44.7274 70.7939 44.9017C70.8535 45.1723 70.8672 45.718 70.8672 48.2723C70.8672 50.8266 70.8535 51.3724 70.7939 51.6429C70.7572 51.8172 70.6609 52.0832 70.5783 52.2345C70.4958 52.3812 70.3353 52.5922 70.2161 52.7023C70.0922 52.8123 69.8675 52.9636 69.7116 53.0416C69.5511 53.115 69.2897 53.1975 69.1246 53.2205C68.9595 53.248 68.4367 53.2709 67.9552 53.2709C67.4737 53.2709 66.9372 53.248 66.7629 53.2205C66.5886 53.1975 66.3181 53.115 66.1667 53.0416C66.0154 52.9728 65.7815 52.8031 65.644 52.6656C65.4789 52.5051 65.3367 52.3079 65.0661 51.7346L65.0524 48.387C65.0432 45.4291 65.0524 45.0118 65.1166 44.7871C65.1579 44.6495 65.245 44.434 65.3092 44.3101C65.378 44.1909 65.5385 43.9891 65.6623 43.8699C65.7907 43.7507 66.0017 43.5993 66.1346 43.5351Z" fill="#D9D9D9"/>
<path d="M75.1779 43.5581C75.2926 43.4893 75.4577 43.4113 75.5448 43.3792C75.6641 43.3379 76.0859 43.3242 77.1728 43.3333C78.5807 43.3425 78.6494 43.3471 78.8466 43.4434C78.9613 43.4984 79.1539 43.6314 79.2777 43.7415C79.4153 43.8653 79.5529 44.0487 79.7867 44.5348L79.8097 52.9957H77.9753L77.9661 49.0565L77.966 49.0194C77.9524 45.1947 77.9521 45.1123 77.8607 44.9888C77.8102 44.9246 77.7093 44.8237 77.6406 44.7687C77.5534 44.7045 77.4204 44.6678 77.2508 44.6541C77.104 44.6449 76.9114 44.6495 76.8197 44.6678C76.7188 44.6816 76.5766 44.755 76.4849 44.8421C76.3611 44.9567 76.3107 45.053 76.274 45.2227C76.2465 45.3649 76.2373 46.9057 76.2556 52.9957H74.3984L74.4213 44.5348L74.5405 44.2826C74.6047 44.145 74.7285 43.9524 74.8157 43.8516C74.9028 43.7552 75.0633 43.6223 75.1779 43.5581Z" fill="#D9D9D9"/>
<path d="M84.0745 43.7277C84.235 43.5672 84.4047 43.4434 84.5331 43.3975C84.6982 43.3425 84.9642 43.3242 85.8859 43.3242C86.9177 43.3196 87.0645 43.3288 87.3305 43.4113C87.4956 43.4618 87.7248 43.5764 87.8487 43.6635C87.9679 43.7507 88.1284 43.9112 88.2064 44.0166C88.2843 44.1267 88.4036 44.3285 88.4678 44.4661C88.532 44.6036 88.6099 44.8742 88.642 45.0622C88.6741 45.2502 88.7016 45.5346 88.7062 45.9794H86.9177V45.5758C86.9223 45.1998 86.9132 45.1677 86.7939 45.0485C86.6655 44.9246 86.6563 44.9201 86.129 44.9246C85.8309 44.9246 85.5466 44.943 85.4961 44.9705C85.4457 44.9934 85.3723 45.0897 85.3356 45.1769C85.2852 45.2961 85.2668 45.5254 85.2668 46.094C85.2668 46.6627 85.2852 46.892 85.3356 47.0112C85.3723 47.0983 85.4594 47.2084 85.5282 47.2497C85.6337 47.3185 85.8034 47.3368 86.6655 47.3551C87.6423 47.3781 87.6836 47.3827 87.9266 47.5019C88.0642 47.5707 88.2797 47.7128 88.4036 47.8229C88.5503 47.9559 88.6787 48.1302 88.9584 48.7034V51.8264L88.8346 52.0877C88.7612 52.2345 88.6099 52.4592 88.4907 52.5876C88.3577 52.7298 88.1559 52.8765 87.6744 53.1104H86.1152C84.6523 53.1104 84.5469 53.1058 84.3726 53.0187C84.2717 52.9682 84.1158 52.8536 84.0286 52.7665C83.9415 52.6793 83.8269 52.5234 83.7764 52.4225C83.6939 52.2574 83.6847 52.129 83.6618 50.2901H85.3585V50.8496C85.3585 51.2944 85.3769 51.4457 85.4411 51.5695C85.4824 51.6567 85.5787 51.7713 85.6475 51.8218C85.7575 51.9043 85.8446 51.9181 86.2436 51.9181C86.6518 51.9181 86.7297 51.9043 86.8627 51.8126C86.9407 51.7576 87.0416 51.6521 87.0782 51.5741C87.1333 51.4641 87.147 51.2394 87.147 50.4965C87.147 49.7535 87.1333 49.5288 87.0782 49.4188C87.0416 49.3408 86.9407 49.2353 86.8627 49.1757C86.7205 49.0794 86.6563 49.0748 85.6566 49.0519C84.7028 49.029 84.5835 49.0198 84.4184 48.9327C84.3176 48.8776 84.1341 48.7217 84.0149 48.5887C83.8681 48.4282 83.7718 48.2631 83.726 48.1118C83.6755 47.933 83.6618 47.5248 83.6618 46.1858C83.6618 44.7045 83.671 44.4569 83.7397 44.2368C83.7994 44.0487 83.8819 43.9203 84.0745 43.7277Z" fill="#D9D9D9"/>
<path d="M119.088 43.4893C119.188 43.4388 119.321 43.3792 119.386 43.3609C119.45 43.3425 120.202 43.3288 121.059 43.3333C122.577 43.3425 122.623 43.3471 122.816 43.4434C122.921 43.503 123.105 43.636 123.219 43.7415C123.334 43.8515 123.485 44.0533 123.55 44.1909C123.669 44.4294 123.673 44.4844 123.696 46.0252H121.954V45.5896C121.954 45.3053 121.931 45.0989 121.885 44.9934C121.848 44.9063 121.747 44.7917 121.669 44.7412C121.541 44.6632 121.435 44.6495 120.991 44.6495C120.546 44.6495 120.44 44.6632 120.317 44.7412C120.234 44.7917 120.133 44.9063 120.096 44.9934C120.037 45.131 120.028 45.5942 120.041 48.3503C120.051 51.2531 120.06 51.5604 120.129 51.6658C120.17 51.73 120.257 51.808 120.321 51.8355C120.394 51.8722 120.642 51.8951 120.991 51.8951C121.339 51.8951 121.587 51.8722 121.66 51.8355C121.724 51.808 121.812 51.73 121.853 51.6658C121.917 51.5741 121.931 51.4136 121.954 50.1067H123.696V51.0101C123.696 51.675 123.678 51.9777 123.632 52.1474C123.591 52.2712 123.495 52.4775 123.412 52.6014C123.329 52.7252 123.16 52.8949 123.031 52.9774C122.908 53.0645 122.687 53.1608 122.55 53.1975C122.348 53.2526 122.013 53.2617 120.899 53.2571C119.532 53.248 119.496 53.2434 119.225 53.1333C119.06 53.0645 118.867 52.9407 118.744 52.8123C118.629 52.6977 118.482 52.5005 118.308 52.1474V48.3182C118.308 44.6403 118.313 44.4798 118.395 44.2597C118.445 44.1313 118.578 43.9295 118.693 43.8057C118.808 43.6865 118.987 43.5443 119.088 43.4893Z" fill="#D9D9D9"/>
<path d="M141.379 43.6635C141.526 43.5672 141.765 43.448 141.902 43.4021C142.122 43.3333 142.315 43.3242 143.461 43.3333C144.695 43.3425 144.782 43.3471 145.021 43.448C145.158 43.503 145.374 43.6268 145.502 43.7186C145.626 43.8149 145.805 43.9937 145.901 44.1221C145.997 44.2459 146.121 44.4661 146.282 44.8559L146.295 48.1806C146.305 51.1293 146.295 51.5329 146.231 51.7576C146.19 51.8951 146.117 52.0923 146.062 52.1932C146.011 52.2941 145.873 52.4775 145.759 52.6014C145.644 52.7252 145.465 52.8765 145.364 52.9407C145.264 53.0049 145.066 53.0966 144.929 53.1471C144.713 53.225 144.521 53.2388 143.622 53.2617C142.961 53.2755 142.448 53.2617 142.246 53.2296C142.072 53.2021 141.797 53.1196 141.641 53.0416C141.48 52.9682 141.256 52.8123 141.136 52.7023C141.012 52.5922 140.843 52.3629 140.747 52.1886C140.655 52.0144 140.558 51.7484 140.531 51.5971C140.499 51.4136 140.481 50.2809 140.481 48.2723C140.481 46.4013 140.499 45.1264 140.526 44.9705C140.554 44.8329 140.632 44.5945 140.71 44.4431C140.783 44.2918 140.902 44.0946 140.976 44.0075C141.049 43.9203 141.228 43.7644 141.379 43.6635Z" fill="#D9D9D9"/>
<path d="M150.845 43.5535C150.959 43.4893 151.124 43.4113 151.211 43.3792C151.331 43.3379 151.753 43.3242 154.307 43.3425L154.577 43.4801C154.724 43.5581 154.931 43.7094 155.036 43.824C155.142 43.9387 155.274 44.1359 155.453 44.489L155.476 52.9957H153.642L153.633 49.0565L153.633 49.0194C153.619 45.1947 153.619 45.1123 153.527 44.9888C153.477 44.9246 153.376 44.8237 153.307 44.7687C153.197 44.6862 153.115 44.6724 152.771 44.6724C152.431 44.6724 152.344 44.6862 152.234 44.7687C152.165 44.8237 152.064 44.9338 152.014 45.0209C151.922 45.1723 151.922 45.2594 151.922 52.9957H150.065L150.088 44.5348L150.193 44.3055C150.253 44.1771 150.377 43.9845 150.469 43.8745C150.56 43.7644 150.73 43.6177 150.845 43.5535Z" fill="#D9D9D9"/>
<path d="M41.9076 47.8688C41.8525 47.6532 41.8388 47.2359 41.8388 45.5437V43.4801H43.6273V47.6303H45.5075V43.503H47.2959V52.9957H45.5075V49.4188H44.5444C43.7465 49.4188 43.5355 49.405 43.32 49.3362C43.1733 49.2904 42.9623 49.1987 42.8477 49.1345C42.733 49.0703 42.5358 48.9052 42.4074 48.7722C42.279 48.6346 42.1277 48.4374 42.0772 48.3273C42.0222 48.2219 41.9443 48.0155 41.9076 47.8688Z" fill="#D9D9D9"/>
<path d="M100.07 48.2815C100.065 45.6171 100.084 43.5489 100.102 43.5305C100.125 43.5122 101.116 43.503 104.459 43.526L104.711 43.6452C104.848 43.7094 105.064 43.8561 105.188 43.9662C105.325 44.09 105.463 44.2826 105.697 44.7641L105.711 45.7042C105.724 46.4563 105.715 46.6994 105.656 46.9195C105.614 47.0708 105.509 47.2955 105.422 47.4239C105.335 47.5477 105.174 47.722 105.064 47.8046C104.958 47.8871 104.858 47.9559 104.839 47.9513C104.816 47.9513 104.803 47.9788 104.803 48.0063C104.798 48.0384 104.867 48.0981 104.945 48.1347C105.027 48.1714 105.156 48.2769 105.238 48.364C105.33 48.4649 105.403 48.6117 105.435 48.763C105.472 48.9281 105.49 49.6435 105.49 52.9957H103.702V51.1935C103.707 49.3958 103.707 49.3958 103.601 49.2399C103.541 49.1528 103.436 49.0382 103.367 48.9877C103.271 48.9143 103.17 48.8914 102.977 48.8914C102.803 48.8914 102.666 48.9235 102.565 48.9831C102.482 49.0336 102.367 49.1482 102.312 49.2353C102.216 49.3913 102.212 49.4371 102.189 52.9957H100.079L100.07 48.2815Z" fill="#D9D9D9"/>
<path d="M109.366 52.0556L109.352 47.777L109.343 43.503H111.177V47.4102C111.177 51.0422 111.181 51.3311 111.259 51.4824C111.301 51.5695 111.411 51.6888 111.498 51.7484C111.631 51.8355 111.718 51.8539 112.025 51.8539C112.333 51.8539 112.42 51.8355 112.553 51.7484C112.64 51.6888 112.75 51.5695 112.796 51.4824C112.869 51.3311 112.874 51.0422 112.874 43.503H114.708L114.685 52.0556L114.57 52.2849C114.511 52.4088 114.364 52.6059 114.249 52.7206C114.135 52.8352 113.942 52.982 113.584 53.1562H110.466L110.237 53.0416C110.113 52.982 109.916 52.8352 109.801 52.7206C109.687 52.6059 109.54 52.4088 109.366 52.0556Z" fill="#D9D9D9"/>
<path d="M91.8659 45.1493V44.3468V43.5443H97.2313L97.2084 45.1264L95.5346 45.1493V52.9912H93.5626V45.1493H91.8659Z" fill="#D9D9D9"/>
<path d="M126.535 45.1493V44.3468V43.5443H131.855V45.1493H130.158V52.9912H128.232V45.1493H126.535Z" fill="#D9D9D9"/>
<path d="M135.019 52.9912V48.2677V43.5443H136.945V52.9912H135.019Z" fill="#D9D9D9"/>
<path d="M75.5219 3.30808C75.7971 3.26681 76.2327 3.21637 76.485 3.19344C76.7372 3.17051 77.4388 3.16134 78.0442 3.17051C78.6678 3.17968 79.3924 3.22095 79.718 3.25764C80.0344 3.29891 80.5068 3.37228 80.7727 3.42731C81.0387 3.47776 81.4193 3.5603 81.6211 3.61075C81.8229 3.66119 82.2356 3.77584 82.5383 3.86756C82.841 3.95469 83.3546 4.13812 83.6848 4.27111C84.0149 4.4041 84.5194 4.62422 84.8083 4.76638C85.0972 4.90855 85.5237 5.12867 85.7484 5.26166C85.9731 5.39006 86.3996 5.65604 86.6885 5.84406C86.9774 6.03667 87.4727 6.39895 87.7891 6.65117C88.1055 6.90339 88.6191 7.35739 88.931 7.66464C89.2428 7.96731 89.6785 8.42131 89.894 8.67353C90.1141 8.92576 90.4443 9.33848 90.6369 9.5907C90.8295 9.84293 91.1414 10.2969 91.3386 10.5996C91.5312 10.9023 91.9072 11.5856 92.1686 12.1129C92.43 12.6403 92.7281 13.3098 92.829 13.5942C92.9344 13.8739 93.0995 14.3921 93.2004 14.736C93.3013 15.0846 93.448 15.667 93.5214 16.0338C93.5948 16.4007 93.6911 16.9969 93.7324 17.3637C93.792 17.8269 93.8149 18.3772 93.8149 19.1751C93.8149 19.9823 93.792 20.5188 93.7324 20.9866C93.6911 21.3534 93.604 21.9083 93.5443 22.2247C93.4801 22.5412 93.3517 23.0869 93.2509 23.44C93.15 23.7931 92.9986 24.2884 92.9069 24.5406C92.8198 24.7928 92.6776 25.1643 92.5905 25.366C92.5034 25.5678 92.3429 25.9163 92.2328 26.1456C92.1273 26.3749 91.9118 26.7739 91.765 27.0399C91.6137 27.3059 91.334 27.7599 91.1414 28.0488C90.9488 28.3377 90.5865 28.833 90.3388 29.1494C90.0912 29.4658 89.5317 30.0757 89.1007 30.5068C88.6696 30.9379 88.0918 31.4698 87.812 31.6899C87.5323 31.9101 87.0508 32.2632 86.7344 32.4741C86.4179 32.6851 85.9227 32.9923 85.6337 33.1574C85.3448 33.3225 84.8404 33.5793 84.5102 33.7306C84.18 33.882 83.6664 34.0929 83.3637 34.2076C83.0611 34.3222 82.5566 34.4873 82.2402 34.5744C81.9238 34.6616 81.479 34.7762 81.2543 34.8312C81.0295 34.8817 80.5755 34.9688 80.2454 35.0193C79.9152 35.0697 79.3374 35.1339 78.9613 35.1614C78.5578 35.1935 77.8928 35.2027 77.3563 35.1889C76.8518 35.1752 76.1823 35.1293 75.8659 35.0881C75.5495 35.0468 75.0358 34.9642 74.7194 34.9046C74.403 34.8404 73.8573 34.712 73.5042 34.6111C73.151 34.5102 72.7154 34.3772 72.5411 34.3176C72.3669 34.258 71.9908 34.1113 71.7157 34.0012C71.4405 33.8866 70.9544 33.6619 70.638 33.5059C70.3216 33.35 69.8584 33.0932 69.6062 32.9419C69.354 32.7905 68.9504 32.5337 68.7119 32.3641C68.4735 32.199 68.0195 31.855 67.7031 31.6028C67.3866 31.3506 66.8593 30.8782 66.5337 30.5481C66.2035 30.2225 65.7816 29.7685 65.589 29.5392C65.3964 29.3099 65.0799 28.9063 64.8782 28.6358C64.681 28.3652 64.3829 27.9341 64.2224 27.6727C64.0573 27.4113 63.7867 26.9344 63.6171 26.6042C63.4428 26.274 63.2089 25.7925 63.0943 25.5266C62.975 25.2606 62.7778 24.747 62.6494 24.3801C62.5256 24.0132 62.3468 23.3941 62.2459 23.0043C62.1496 22.6145 62.0304 22.0275 61.9799 21.6974C61.9249 21.3672 61.8607 20.8627 61.8332 20.5738C61.8102 20.2849 61.7873 19.6567 61.7873 19.1751C61.7873 18.6936 61.8102 18.0654 61.8332 17.7765C61.8607 17.4875 61.934 16.9418 61.9937 16.5612C62.0579 16.1852 62.1817 15.5936 62.2688 15.2542C62.3559 14.9149 62.5164 14.3783 62.6173 14.0619C62.7228 13.7455 62.9017 13.2731 63.0117 13.0072C63.1264 12.7412 63.3419 12.278 63.4932 11.9753C63.6492 11.6727 63.8968 11.2187 64.0481 10.9665C64.1995 10.7142 64.4563 10.3107 64.6259 10.0722C64.791 9.83375 65.1258 9.38893 65.3689 9.08626C65.6119 8.78359 66.0567 8.28832 66.3548 7.98107C66.6575 7.67382 67.084 7.26568 67.3133 7.06848C67.5425 6.87129 67.9644 6.53652 68.2534 6.3164C68.5423 6.10087 69.0605 5.75234 69.3998 5.54139C69.7392 5.33044 70.3262 5.00485 70.7068 4.81683C71.0828 4.62881 71.6515 4.372 71.9679 4.24818C72.2843 4.12436 72.8209 3.94093 73.1602 3.84004C73.4996 3.73457 74.059 3.59241 74.3984 3.51903C74.7378 3.44107 75.2468 3.34936 75.5219 3.30808Z" fill="#010101"/>
<path d="M67.1665 44.9706C67.194 44.911 67.2903 44.8147 67.3775 44.755C67.5104 44.6679 67.5976 44.6496 67.9186 44.6496C68.1571 44.6496 68.3588 44.6771 68.4597 44.7184C68.5514 44.755 68.6523 44.8468 68.689 44.9247C68.7486 45.0439 68.7578 45.5163 68.7578 51.5742L68.446 51.8952H67.9828C67.6618 51.8952 67.4783 51.8723 67.382 51.8264C67.3041 51.7897 67.2124 51.698 67.1757 51.6201C67.1161 51.5008 67.1069 51.0377 67.1069 48.2861C67.1069 45.8373 67.1207 45.0577 67.1665 44.9706Z" fill="#010101"/>
<path d="M142.663 44.8834C142.705 44.8284 142.801 44.7505 142.884 44.7138C142.966 44.6817 143.191 44.6542 143.416 44.6496C143.727 44.6496 143.837 44.6679 143.952 44.7413C144.035 44.7917 144.136 44.8926 144.172 44.9706C144.232 45.0898 144.241 45.553 144.241 48.2724C144.241 51.1936 144.236 51.4504 144.158 51.6017C144.117 51.6934 144.025 51.7989 143.952 51.831C143.874 51.8723 143.663 51.8952 142.911 51.8952L142.59 51.5742V48.2861C142.59 45.3237 142.595 44.9843 142.663 44.8834Z" fill="#010101"/>
<path d="M102.212 47.8367L102.198 46.2913L102.189 44.7413H102.656C103.06 44.7413 103.156 44.755 103.331 44.8422C103.45 44.9064 103.564 45.0118 103.615 45.1082C103.693 45.2503 103.702 45.3787 103.702 46.3005C103.702 47.2222 103.693 47.3506 103.615 47.4928C103.564 47.5891 103.45 47.6946 103.331 47.7588C103.152 47.8505 103.074 47.8597 102.212 47.8367Z" fill="#010101"/>
<path d="M10.9714 48.2311V46.5802V44.9293H12.6682V48.2311H10.9714Z" fill="#010101"/>
<path d="M76.3014 6.36225C76.5537 6.33473 76.8334 6.30722 76.9205 6.29805C77.0077 6.28887 77.3608 6.2797 77.7001 6.27512C78.0395 6.27053 78.5669 6.28887 78.8695 6.31639C79.1722 6.33932 79.6583 6.40352 79.9472 6.45396C80.2361 6.50441 80.713 6.6053 81.0019 6.67867C81.2909 6.75205 81.7724 6.89421 82.0704 6.9951C82.3639 7.10057 82.8179 7.27942 83.0748 7.39407C83.3361 7.50871 83.7535 7.71966 84.0057 7.85724C84.2579 7.99481 84.689 8.26079 84.9687 8.44423C85.2484 8.63225 85.6474 8.92115 85.8629 9.09542C86.0785 9.26509 86.5417 9.69158 86.8994 10.0493C87.2571 10.4024 87.7019 10.8885 87.8899 11.127C88.0825 11.3654 88.3898 11.7919 88.5732 12.0671C88.7612 12.3468 89.073 12.8833 89.2657 13.2594C89.4583 13.64 89.7105 14.1857 89.8251 14.4746C89.9398 14.7635 90.1003 15.2496 90.1874 15.5523C90.2745 15.855 90.3892 16.309 90.4442 16.5612C90.4947 16.8134 90.568 17.2582 90.6047 17.5471C90.6414 17.8361 90.6873 18.3543 90.701 18.6936C90.7194 19.0421 90.7102 19.6108 90.6827 20.0006C90.6552 20.3766 90.591 20.9361 90.5405 21.2388C90.4947 21.5414 90.38 22.0688 90.2929 22.4082C90.2058 22.7475 90.0453 23.2749 89.9398 23.5775C89.8297 23.8802 89.5637 24.4901 89.3436 24.9304C89.1235 25.3706 88.7841 25.9714 88.5915 26.2603C88.3989 26.5492 88.0825 26.9848 87.8945 27.2233C87.7019 27.4618 87.2341 27.9708 86.8535 28.3468C86.4729 28.7275 85.9226 29.2136 85.6337 29.4337C85.3447 29.6492 84.8999 29.9565 84.6477 30.117C84.3955 30.2775 83.9415 30.5297 83.6388 30.6856C83.3361 30.8415 82.8638 31.0571 82.5841 31.1626C82.3043 31.2726 81.8549 31.4331 81.5752 31.5157C81.2954 31.6028 80.7818 31.7312 80.4287 31.8046C80.0756 31.8779 79.5712 31.9651 79.3052 32.0018C79.0117 32.0385 78.388 32.0614 77.7231 32.0568C76.8334 32.0522 76.494 32.0339 75.9575 31.9513C75.5906 31.8963 74.9807 31.7679 74.6047 31.6716C74.224 31.5753 73.6508 31.3964 73.3206 31.2772C72.9905 31.158 72.3943 30.892 71.9907 30.6856C71.5872 30.4838 71.0736 30.1949 70.8443 30.0482C70.615 29.8969 70.2665 29.6538 70.0647 29.5025C69.8629 29.3511 69.5419 29.0897 69.3539 28.9292C69.1659 28.7642 68.8082 28.4248 68.5559 28.168C68.3083 27.9112 67.9552 27.5168 67.7718 27.2921C67.5837 27.0628 67.2581 26.6134 67.038 26.2832C66.8179 25.953 66.4556 25.3156 66.2355 24.8616C66.0108 24.4076 65.7356 23.7702 65.6256 23.44C65.5109 23.1098 65.355 22.5778 65.2725 22.2477C65.1945 21.9175 65.0844 21.3855 65.034 21.0553C64.9836 20.7114 64.9331 20.0785 64.9193 19.5649C64.901 19.0055 64.9148 18.446 64.9469 18.0745C64.979 17.7443 65.0432 17.2399 65.0936 16.951C65.1441 16.6621 65.2449 16.1943 65.3183 15.9192C65.3917 15.6394 65.5339 15.1671 65.6393 14.8644C65.7448 14.5618 66.0016 13.961 66.2126 13.5345C66.4235 13.1035 66.7124 12.5669 66.8546 12.3422C66.9967 12.1129 67.2581 11.7323 67.437 11.4938C67.6204 11.2554 67.9552 10.8426 68.1891 10.5766C68.4229 10.3107 68.7806 9.93921 68.9916 9.75119C69.198 9.56317 69.496 9.30178 69.6474 9.17796C69.8033 9.04956 70.1014 8.82027 70.3169 8.66893C70.5324 8.51301 70.9176 8.26079 71.179 8.10487C71.4358 7.94895 71.8486 7.72425 72.0916 7.60043C72.3393 7.47661 72.7795 7.284 73.0684 7.16936C73.3573 7.05471 73.8434 6.88962 74.1461 6.80249C74.4488 6.71536 74.9532 6.59154 75.2696 6.52734C75.586 6.46314 76.0492 6.38976 76.3014 6.36225Z" fill="#75EF42"/>
<path d="M77.1957 14.0621V13.2825V12.5029H78.6678L78.6861 14.0805L79.0301 14.1401C79.2181 14.1722 79.5391 14.2456 79.7409 14.3098C79.9427 14.374 80.2545 14.4886 80.4288 14.5666C80.603 14.6491 80.8965 14.805 81.0708 14.9197C81.2451 15.0343 81.5019 15.2178 81.6303 15.3278C81.7633 15.4379 81.8733 15.5525 81.8733 15.5755C81.8733 15.5984 81.6073 16.0019 81.2772 16.4697C80.947 16.9375 80.6718 17.3181 80.6581 17.3181C80.6443 17.3181 80.548 17.2401 80.4379 17.1438C80.3279 17.0521 80.094 16.887 79.9197 16.7815C79.7455 16.6761 79.4474 16.5293 79.2594 16.4514C79.0714 16.378 78.8604 16.3046 78.6632 16.2633L78.6861 18.5746L78.8467 18.6205C78.9338 18.6434 79.2227 18.7351 79.4887 18.8177C79.7547 18.9048 80.1674 19.079 80.4058 19.2029C80.6443 19.3267 80.9561 19.5147 81.0937 19.6293C81.2313 19.7394 81.4331 19.9412 81.5385 20.0742C81.644 20.2118 81.7816 20.4227 81.8458 20.5511C81.91 20.6749 82.0017 20.9455 82.0568 21.1473C82.121 21.3949 82.1485 21.6563 82.1485 21.959C82.1485 22.2066 82.1164 22.5689 82.0751 22.7615C82.0338 22.9587 81.9513 23.243 81.8917 23.3943C81.8275 23.5457 81.7128 23.7704 81.6303 23.8988C81.5523 24.0226 81.3826 24.2381 81.2542 24.3757C81.1304 24.5087 80.9103 24.6967 80.7727 24.793C80.6351 24.8847 80.415 25.0177 80.2912 25.0773C80.1628 25.1415 79.8968 25.247 79.695 25.3112C79.4933 25.3708 79.1768 25.4488 78.6632 25.5268V27.0401H77.1957V25.5268L76.9756 25.4992C76.8564 25.4855 76.6042 25.4396 76.4161 25.4029C76.2281 25.3663 75.9163 25.2837 75.7283 25.2195C75.5403 25.1599 75.2192 25.0269 75.0175 24.9306C74.8157 24.8297 74.5038 24.6509 74.3296 24.527C74.1553 24.4032 73.8893 24.1969 73.7426 24.0685C73.6004 23.9355 73.4812 23.8071 73.4812 23.7841C73.4812 23.7612 73.7472 23.3347 74.6735 21.9498L74.9808 22.2341C75.155 22.39 75.4394 22.6102 75.6136 22.7248C75.7879 22.8394 76.063 22.9862 76.219 23.0596C76.3795 23.1284 76.6454 23.2292 76.8151 23.2751C76.9894 23.3255 77.1453 23.3531 77.1636 23.3347C77.182 23.3164 77.1957 22.7294 77.1957 20.7575L77.0031 20.7116C76.8931 20.6841 76.6088 20.597 76.3703 20.519C76.1318 20.4456 75.7283 20.276 75.476 20.1476C75.1092 19.9595 74.9441 19.8357 74.646 19.5422C74.3571 19.2579 74.2379 19.0974 74.1095 18.8314C74.0177 18.6434 73.9123 18.327 73.8756 18.1344C73.8343 17.9372 73.8022 17.6207 73.8022 17.4327C73.8022 17.2447 73.8343 16.9375 73.8756 16.7586C73.9123 16.5752 73.9902 16.3229 74.0407 16.1945C74.0957 16.0707 74.2241 15.8323 74.3296 15.6672C74.4351 15.5021 74.646 15.2544 74.7928 15.1123C74.9395 14.9701 75.1871 14.7775 75.3385 14.6812C75.4898 14.5849 75.7374 14.4519 75.8888 14.3923C76.0401 14.3281 76.2877 14.2456 76.4391 14.1997C76.5904 14.1584 76.8243 14.108 77.1957 14.0621Z" fill="#010101"/>
<path d="M76.5216 16.4139C76.6041 16.3543 76.7509 16.2764 76.8518 16.2397C76.9527 16.203 77.0719 16.1755 77.1178 16.1709C77.1911 16.1709 77.1957 16.2489 77.1957 17.1569C77.1957 17.698 77.182 18.152 77.1636 18.1612C77.1407 18.1703 76.9939 18.1199 76.8289 18.0419C76.6638 17.9686 76.462 17.8585 76.384 17.7943C76.2969 17.7347 76.2006 17.5971 76.1593 17.4916C76.1104 17.3602 76.0951 17.2256 76.1135 17.0881C76.1272 16.9734 76.1914 16.7992 76.2602 16.6983C76.3244 16.5974 76.4391 16.469 76.5216 16.4139Z" fill="#75EF42"/>
<path d="M78.6632 23.3707V22.2701C78.6632 21.5684 78.6815 21.1695 78.7091 21.1695C78.7366 21.1695 78.8833 21.2199 79.0438 21.2841C79.1997 21.3437 79.4199 21.4767 79.5299 21.5684C79.64 21.6648 79.7592 21.7977 79.7913 21.8665C79.828 21.9399 79.8555 22.0958 79.8555 22.2242C79.8555 22.348 79.8234 22.5315 79.7821 22.6232C79.7455 22.7195 79.6492 22.8662 79.5666 22.9534C79.4841 23.0359 79.296 23.1643 79.1447 23.2377C78.9934 23.3111 78.8237 23.3707 78.6632 23.3707Z" fill="#75EF42"/>
</svg>
