<svg width="12" height="12" viewBox="0 0 12 12" fill="none" xmlns="http://www.w3.org/2000/svg">
<path d="M6.88173 5.98639L11.8557 1.0257C12.0596 0.788284 12.0459 0.434373 11.8243 0.213345C11.6026 -0.00768377 11.2478 -0.0213538 11.0097 0.181967L6.03573 5.14266L1.06174 0.175983C0.82647 -0.0586609 0.445018 -0.0586609 0.209745 0.175983C-0.025528 0.410626 -0.025528 0.791059 0.209745 1.0257L5.18974 5.98639L0.209745 10.9471C0.0385195 11.0933 -0.0360639 11.3229 0.0166591 11.5415C0.0693821 11.7601 0.240513 11.9308 0.459693 11.9834C0.678873 12.036 0.90911 11.9616 1.05574 11.7908L6.03573 6.83013L11.0097 11.7908C11.2478 11.9941 11.6026 11.9805 11.8243 11.7594C12.0459 11.5384 12.0596 11.1845 11.8557 10.9471L6.88173 5.98639Z" fill="#24292E"/>
</svg>
