<svg width="8" height="8" viewBox="0 0 8 8" fill="none" xmlns="http://www.w3.org/2000/svg">
<path fill-rule="evenodd" clip-rule="evenodd" d="M0.598637 0.438969C0.712977 0.324767 0.867981 0.260621 1.02959 0.260621C1.19119 0.260621 1.34619 0.324767 1.46054 0.438969L4.07877 3.0572L6.697 0.438969C6.75286 0.379051 6.82018 0.330996 6.89499 0.297666C6.9698 0.264337 7.05054 0.246416 7.13242 0.244968C7.2143 0.243521 7.29561 0.258588 7.37156 0.289259C7.4475 0.319929 7.51645 0.365577 7.57435 0.423488C7.63232 0.481398 7.67794 0.550382 7.70859 0.626311C7.73925 0.702248 7.75437 0.783584 7.75291 0.865464C7.75144 0.947353 7.73356 1.0281 7.70022 1.10291C7.66688 1.17772 7.61883 1.24504 7.5589 1.30087L4.94067 3.9191L7.5589 6.53733C7.61883 6.59319 7.66688 6.66052 7.70022 6.73532C7.73356 6.81013 7.75144 6.89087 7.75291 6.97275C7.75437 7.05463 7.73925 7.13594 7.70859 7.21189C7.67794 7.28783 7.63232 7.35679 7.57435 7.41468C7.51645 7.47266 7.4475 7.51827 7.37156 7.54893C7.29561 7.57958 7.2143 7.59471 7.13242 7.59324C7.05054 7.59178 6.9698 7.57389 6.89499 7.54055C6.82018 7.50721 6.75286 7.45916 6.697 7.39923L4.07877 4.781L1.46054 7.39923C1.34493 7.50697 1.19202 7.5656 1.03404 7.56283C0.876047 7.55998 0.725312 7.49599 0.613574 7.38427C0.501843 7.27255 0.437843 7.1218 0.435054 6.96381C0.432265 6.80582 0.490915 6.65296 0.598637 6.53733L3.21687 3.9191L0.598637 1.30087C0.484435 1.18653 0.420288 1.03153 0.420288 0.86992C0.420288 0.708314 0.484435 0.553318 0.598637 0.438969Z" fill="#9E1C23" fill-opacity="0.6"/>
</svg>
