<svg width="17" height="21" viewBox="0 0 17 21" fill="none" xmlns="http://www.w3.org/2000/svg">
<g clip-path="url(#clip0_185_4850)">
<path fill-rule="evenodd" clip-rule="evenodd" d="M2.1786 10.8311C2.59119 10.2104 3.42036 9.08093 4.54446 8.11418C5.67543 7.14151 7.02714 6.39941 8.49977 6.39941C9.97239 6.39941 11.3242 7.14151 12.4551 8.11418C13.5792 9.08093 14.4084 10.2104 14.821 10.8311C14.8498 10.8744 14.8498 10.9244 14.821 10.9678C14.4084 11.5885 13.5792 12.7179 12.4551 13.6846C11.3242 14.6573 9.97239 15.3994 8.49977 15.3994C7.02714 15.3994 5.67543 14.6573 4.54446 13.6846C3.42036 12.7179 2.59119 11.5885 2.1786 10.9678C2.14978 10.9244 2.14978 10.8744 2.1786 10.8311ZM8.49977 4.89941C6.51841 4.89941 4.82895 5.89108 3.56638 6.97692C2.29694 8.06867 1.38021 9.32248 0.929391 10.0007C0.566179 10.5471 0.56618 11.2517 0.929391 11.7981C1.38021 12.4763 2.29694 13.7301 3.56638 14.8219C4.82895 15.9077 6.51841 16.8994 8.49977 16.8994C10.4811 16.8994 12.1706 15.9077 13.4332 14.8219C14.7026 13.7301 15.6194 12.4763 16.0702 11.7981C16.4334 11.2517 16.4334 10.5471 16.0702 10.0007C15.6194 9.32248 14.7026 8.06867 13.4332 6.97692C12.1706 5.89108 10.4811 4.89941 8.49977 4.89941ZM8.49976 12.8994C9.60433 12.8994 10.4998 12.004 10.4998 10.8994C10.4998 9.79484 9.60433 8.89941 8.49976 8.89941C7.39519 8.89941 6.49976 9.79484 6.49976 10.8994C6.49976 12.004 7.39519 12.8994 8.49976 12.8994Z" fill="#24292E"/>
</g>
<defs>
<clipPath id="clip0_185_4850">
<rect width="16" height="16" fill="white" transform="translate(0.499756 2.89941)"/>
</clipPath>
</defs>
</svg>
