<svg width="17" height="21" viewBox="0 0 17 21" fill="none" xmlns="http://www.w3.org/2000/svg">
<path d="M12.4211 15.7641C11.2486 16.5078 9.88824 16.9017 8.49975 16.8995C4.90509 16.8995 1.91442 14.3128 1.28709 10.8995C1.57377 9.3466 2.35484 7.92806 3.51375 6.85546L1.42775 4.77146L2.37109 3.82812L15.5704 17.0281L14.6271 17.9708L12.4204 15.7641H12.4211ZM4.45642 7.79946C3.55042 8.62318 2.9193 9.70531 2.64842 10.8995C2.85661 11.8104 3.2746 12.6602 3.86909 13.3812C4.46358 14.1022 5.21817 14.6744 6.07279 15.0523C6.92741 15.4303 7.85845 15.6035 8.79181 15.5582C9.72517 15.5129 10.6351 15.2504 11.4491 14.7915L10.0971 13.4395C9.52155 13.802 8.83989 13.9582 8.16391 13.8824C7.48794 13.8066 6.85778 13.5034 6.3768 13.0224C5.89582 12.5414 5.59257 11.9113 5.51679 11.2353C5.44102 10.5593 5.59721 9.87766 5.95975 9.30212L4.45642 7.79946ZM9.10909 12.4515L6.94775 10.2901C6.82913 10.5921 6.80121 10.9221 6.86742 11.2397C6.93363 11.5573 7.0911 11.8486 7.3205 12.078C7.5499 12.3074 7.84126 12.4649 8.15886 12.5311C8.47645 12.5973 8.80646 12.5694 9.10842 12.4508L9.10909 12.4515ZM14.3711 13.9608L13.4171 13.0075C13.8627 12.3723 14.18 11.6562 14.3511 10.8995C14.1699 10.1059 13.8293 9.35756 13.3499 8.69979C12.8704 8.04202 12.2623 7.48861 11.5623 7.07319C10.8624 6.65778 10.0853 6.38904 9.27824 6.2833C8.4712 6.17756 7.65109 6.23704 6.86775 6.45812L5.81575 5.40612C6.64709 5.07946 7.55309 4.89946 8.49975 4.89946C12.0944 4.89946 15.0851 7.48612 15.7124 10.8995C15.5081 12.0099 15.049 13.0578 14.3711 13.9608ZM8.31509 7.90479C8.73943 7.87857 9.16449 7.94284 9.56211 8.09334C9.95973 8.24384 10.3208 8.47713 10.6215 8.77776C10.9221 9.07838 11.1554 9.43948 11.3059 9.8371C11.4564 10.2347 11.5206 10.6598 11.4944 11.0841L8.31442 7.90479H8.31509Z" fill="#959DA5"/>
</svg>
