    <svg
                      width="20"
                      height="20"
                      viewBox="0 0 20 20"
                      fill="none"
                      xmlns="http://www.w3.org/2000/svg">
                      <path
                        d="M5.33329 9.99996L9.33329 13.3333L14.6666 6.66663M9.99996 19.3333C8.77429 19.3333 7.56062 19.0919 6.42825 18.6228C5.29588 18.1538 4.26698 17.4663 3.4003 16.5996C2.53362 15.7329 1.84613 14.704 1.37708 13.5717C0.90804 12.4393 0.666626 11.2256 0.666626 9.99996C0.666626 8.77429 0.90804 7.56062 1.37708 6.42825C1.84613 5.29588 2.53362 4.26698 3.4003 3.4003C4.26698 2.53362 5.29588 1.84613 6.42825 1.37708C7.56062 0.90804 8.77429 0.666626 9.99996 0.666626C12.4753 0.666626 14.8493 1.64996 16.5996 3.4003C18.35 5.15064 19.3333 7.52461 19.3333 9.99996C19.3333 12.4753 18.35 14.8493 16.5996 16.5996C14.8493 18.35 12.4753 19.3333 9.99996 19.3333Z"
                        stroke="#01944C"
                        stroke-width="1.33333" />
                    </svg>