<svg width="14" height="14" viewBox="0 0 14 14" fill="none" xmlns="http://www.w3.org/2000/svg">
<g clip-path="url(#clip0_480_5619)">
<path fill-rule="evenodd" clip-rule="evenodd" d="M4.23775 0.592801C4.35211 0.478435 4.50723 0.414185 4.66897 0.414185H9.54766C9.70938 0.414185 9.86453 0.478435 9.97885 0.592801L13.4346 4.04854C13.549 4.1629 13.6132 4.31802 13.6132 4.47976V9.35845C13.6132 9.52018 13.549 9.67532 13.4346 9.78964L9.97885 13.2454C9.86453 13.3598 9.70938 13.424 9.54766 13.424H4.66897C4.50723 13.424 4.35211 13.3598 4.23775 13.2454L0.78201 9.78964C0.667644 9.67532 0.603394 9.52018 0.603394 9.35845V4.47976C0.603394 4.31802 0.667644 4.1629 0.78201 4.04854L4.23775 0.592801ZM4.92157 1.63386L1.82307 4.73236V9.10581L4.92157 12.2043H9.29502L12.3936 9.10581V4.73236L9.29502 1.63386H4.92157ZM7.10831 3.66664C7.44511 3.66664 7.71815 3.93968 7.71815 4.27648V7.12238C7.71815 7.45918 7.44511 7.73222 7.10831 7.73222C6.77151 7.73222 6.49848 7.45918 6.49848 7.12238V4.27648C6.49848 3.93968 6.77151 3.66664 7.10831 3.66664ZM7.10831 10.1716C7.55739 10.1716 7.92143 9.80753 7.92143 9.35845C7.92143 8.90936 7.55739 8.54533 7.10831 8.54533C6.65924 8.54533 6.2952 8.90936 6.2952 9.35845C6.2952 9.80753 6.65924 10.1716 7.10831 10.1716Z" fill="#9E1C23" fill-opacity="0.6"/>
</g>
<defs>
<clipPath id="clip0_480_5619">
<rect width="13.0098" height="13.0098" fill="white" transform="translate(0.603394 0.414185)"/>
</clipPath>
</defs>
</svg>
