 <svg
                    
                      width="20"
                      height="20"
                      viewBox="0 0 20 20"
                      fill="none"
                      xmlns="http://www.w3.org/2000/svg">
                      <path
                        d="M6 5.99996L14 14M6 14L14 5.99996M10 19.3333C8.77433 19.3333 7.56066 19.0919 6.42829 18.6228C5.29591 18.1538 4.26701 17.4663 3.40033 16.5996C2.53365 15.7329 1.84617 14.704 1.37712 13.5717C0.908078 12.4393 0.666664 11.2256 0.666664 9.99996C0.666664 8.77429 0.908078 7.56062 1.37712 6.42825C1.84617 5.29588 2.53365 4.26698 3.40033 3.4003C4.26701 2.53362 5.29591 1.84613 6.42829 1.37708C7.56066 0.90804 8.77433 0.666626 10 0.666626C12.4754 0.666626 14.8493 1.64996 16.5997 3.4003C18.35 5.15064 19.3333 7.52461 19.3333 9.99996C19.3333 12.4753 18.35 14.8493 16.5997 16.5996C14.8493 18.35 12.4754 19.3333 10 19.3333Z"
                        stroke="#EB0000"
                        stroke-width="1.33333" />
                    </svg>