<svg width="8" height="9" viewBox="0 0 8 9" fill="none" xmlns="http://www.w3.org/2000/svg">
<mask id="path-1-inside-1_497_7430" fill="white">
<path fill-rule="evenodd" clip-rule="evenodd" d="M0.395745 5.04579C0.211187 4.55363 0.857283 4.12271 1.31882 4.12271C1.78036 4.12271 3.16498 6.19963 3.16498 6.19963C3.16498 6.19963 6.62651 0.661171 6.85728 0.430402C7.08805 0.199633 8.2419 0.430402 7.78036 1.35348C7.37158 2.17105 3.62651 7.81502 3.62651 7.81502C3.62651 7.81502 3.16498 8.50732 2.70344 7.81502C2.2419 7.12271 0.580303 5.53794 0.395745 5.04579Z"/>
</mask>
<path fill-rule="evenodd" clip-rule="evenodd" d="M0.395745 5.04579C0.211187 4.55363 0.857283 4.12271 1.31882 4.12271C1.78036 4.12271 3.16498 6.19963 3.16498 6.19963C3.16498 6.19963 6.62651 0.661171 6.85728 0.430402C7.08805 0.199633 8.2419 0.430402 7.78036 1.35348C7.37158 2.17105 3.62651 7.81502 3.62651 7.81502C3.62651 7.81502 3.16498 8.50732 2.70344 7.81502C2.2419 7.12271 0.580303 5.53794 0.395745 5.04579Z" stroke="white" stroke-width="4" mask="url(#path-1-inside-1_497_7430)"/>
</svg>
