<svg width="48" height="32" viewBox="0 0 48 32" fill="none" xmlns="http://www.w3.org/2000/svg">
<path fill-rule="evenodd" clip-rule="evenodd" d="M24.3851 28.1779V19.1949L38.243 11.1949L24.928 3.51032L28.8345 1.25447L46.5988 11.5103V20.4934L28.8345 30.7492L24.3851 28.1779ZM23.2994 18.5676V28.8015L28.8345 31.9963L47.6845 21.1133V10.8831L28.8345 0L22.7565 3.51032L36.0715 11.1985L23.2994 18.5713V18.5676Z" fill="#D453B5"/>
<path fill-rule="evenodd" clip-rule="evenodd" d="M46.8702 10.7253L28.8345 21.1389L24.1137 18.4136C23.8533 18.2632 23.5231 18.3512 23.3727 18.6116C23.2224 18.8721 23.3104 19.2022 23.5708 19.3526L28.8345 22.3934L47.4131 11.668C47.6735 11.5176 47.7616 11.1875 47.6112 10.9271C47.4608 10.6666 47.1307 10.5786 46.8702 10.729V10.7253Z" fill="#D453B5"/>
<path fill-rule="evenodd" clip-rule="evenodd" d="M28.2916 21.7661V31.3764C28.2916 31.6772 28.5337 31.9193 28.8345 31.9193C29.1353 31.9193 29.3774 31.6772 29.3774 31.3764V21.7661C29.3774 21.4654 29.1353 21.2233 28.8345 21.2233C28.5337 21.2233 28.2916 21.4654 28.2916 21.7661Z" fill="#D453B5"/>
<path fill-rule="evenodd" clip-rule="evenodd" d="M23.2994 28.1779L18.8501 30.7492L1.08574 20.4897V11.5103C3.18019 10.2999 16.7556 2.46126 18.8501 1.2508L22.7565 3.50665L9.44154 11.1949L23.2994 19.1949V28.1779ZM18.8501 32L24.3851 28.8051V18.5713L11.613 11.1949L24.928 3.51032L18.8501 0L0 10.8831V21.1169L18.8501 32Z" fill="#5E5EDE"/>
<path fill-rule="evenodd" clip-rule="evenodd" d="M0.27144 11.6644L18.8501 22.3897L24.1137 19.3489C24.3741 19.1985 24.4622 18.8684 24.3118 18.608C24.1614 18.3475 23.8313 18.2595 23.5708 18.4099C23.5708 18.4099 19.8918 20.5337 18.8501 21.1352L0.814311 10.7253C0.55388 10.575 0.223756 10.663 0.073366 10.9234C-0.0770237 11.1838 0.0110093 11.514 0.27144 11.6644Z" fill="#5E5EDE"/>
<path fill-rule="evenodd" clip-rule="evenodd" d="M18.3072 21.7661V31.3764C18.3072 31.6772 18.5493 31.9193 18.8501 31.9193C19.1508 31.9193 19.3929 31.6772 19.3929 31.3764V21.7661C19.3929 21.4654 19.1508 21.2233 18.8501 21.2233C18.5493 21.2233 18.3072 21.4654 18.3072 21.7661Z" fill="#5E5EDE"/>
<path fill-rule="evenodd" clip-rule="evenodd" d="M31.105 10.8684C31.1564 10.9821 31.1857 11.0995 31.1857 11.2205C31.1857 11.9688 30.133 12.5777 28.8345 12.5777C27.536 12.5777 26.4833 11.9688 26.4833 11.2205C26.4833 11.0995 26.5126 10.9821 26.564 10.8684C26.8317 11.448 27.7488 11.8735 28.8345 11.8735C29.9202 11.8735 30.8372 11.448 31.105 10.8684Z" fill="#5E5EDE"/>
<path fill-rule="evenodd" clip-rule="evenodd" d="M21.1206 10.8684C21.1719 10.9821 21.2013 11.0995 21.2013 11.2205C21.2013 11.9688 20.1485 12.5777 18.8501 12.5777C17.5516 12.5777 16.4988 11.9688 16.4988 11.2205C16.4988 11.0995 16.5282 10.9821 16.5795 10.8684C16.8473 11.448 17.7643 11.8735 18.8501 11.8735C19.9358 11.8735 20.8528 11.448 21.1206 10.8684Z" fill="#5E5EDE"/>
</svg>
