<svg width="78" height="8" viewBox="0 0 78 8" fill="none" xmlns="http://www.w3.org/2000/svg">
<path d="M7.54232 7.24777H6.24152L5.64689 6.08598L4.22511 3.29818L2.80333 6.08598L2.2087 7.24777H0.907898L1.50252 6.08598L4.22511 0.74292L6.94769 6.08598L7.54232 7.24777Z" fill="#1C1C1C"/>
<path d="M15.3102 1.27313C15.6259 1.58889 15.8216 2.02564 15.8216 2.50872C15.8216 3.21489 15.4037 3.82839 14.7996 4.10726C14.6417 4.18191 14.4744 4.22824 14.2977 4.24626C14.2788 4.24626 14.2608 4.24626 14.2419 4.24626V4.2557H11.1289V7.24771H9.9671V0.743713H14.0651C14.5482 0.743713 14.985 0.938492 15.3007 1.25511L15.3102 1.27313ZM14.3165 3.04757C14.5302 2.9549 14.6701 2.74125 14.6701 2.50872C14.6701 2.29506 14.5585 2.14662 14.4933 2.08141C14.4186 2.00676 14.2796 1.91409 14.0754 1.91409H11.1298V3.11278H14.0754C14.1595 3.11278 14.2428 3.09391 14.3174 3.05701V3.04757H14.3165Z" fill="#1C1C1C"/>
<path d="M23.9526 1.27313C24.2683 1.58889 24.4639 2.02564 24.4639 2.50872C24.4639 3.21489 24.0461 3.82839 23.442 4.10726C23.2841 4.18191 23.1168 4.22824 22.9401 4.24626C22.9212 4.24626 22.9032 4.24626 22.8843 4.24626V4.2557H19.7713V7.24771H18.6095V0.743713H22.7075C23.1906 0.743713 23.6273 0.938492 23.9431 1.25511L23.9526 1.27313ZM22.9581 3.04757C23.1717 2.9549 23.3116 2.74125 23.3116 2.50872C23.3116 2.29506 23.2 2.14662 23.1348 2.08141C23.0602 2.00676 22.9212 1.91409 22.717 1.91409H19.7713V3.11278H22.717C22.8011 3.11278 22.8843 3.09391 22.9589 3.05701V3.04757H22.9581Z" fill="#1C1C1C"/>
<path d="M33.7453 5.17553C33.7453 6.31845 32.8161 7.24771 31.6732 7.24771H27.2405V0.743713H31.3385C32.3047 0.743713 33.0949 1.53312 33.0949 2.50014C33.0949 2.85365 32.9928 3.17799 32.8161 3.44828C33.3738 3.81896 33.7453 4.45048 33.7453 5.17553ZM28.4023 3.09391H31.3479C31.6731 3.09391 31.9426 2.82448 31.9426 2.49928C31.9426 2.17408 31.6731 1.90465 31.3479 1.90465H28.4023V3.09391ZM31.6732 6.07648C32.1751 6.07648 32.5835 5.66719 32.5835 5.16609C32.5835 4.66413 32.1751 4.2557 31.6732 4.2557H28.4023V6.08591H31.6732V6.07648Z" fill="#1C1C1C"/>
<path d="M41.6625 6.09525V7.25705H38.3642C38.039 7.25705 37.7327 7.18239 37.4538 7.04339C37.0454 6.83918 36.7107 6.50454 36.5151 6.09525C36.3761 5.81638 36.3015 5.51006 36.3015 5.18486V0.753052H37.4633V5.29641C37.519 5.7057 37.8442 6.0309 38.2535 6.08667L41.6625 6.09525Z" fill="#1C1C1C"/>
<path d="M50.7312 3.99571C50.7312 5.78903 49.2726 7.24771 47.4792 7.24771C45.6859 7.24771 44.2272 5.78903 44.2272 3.99571C44.2272 2.2024 45.6859 0.743713 47.4792 0.743713C49.2726 0.743713 50.7312 2.20154 50.7312 3.99571ZM49.5694 3.99571C49.5694 2.84336 48.6307 1.90465 47.4784 1.90465C46.326 1.90465 45.3873 2.84336 45.3873 3.99571C45.3873 5.14807 46.326 6.08677 47.4784 6.08677C48.6307 6.08592 49.5694 5.14721 49.5694 3.99571Z" fill="#1C1C1C"/>
<path d="M54.3643 3.99559C54.3643 5.14794 55.303 6.08665 56.4554 6.08665H59.7074V7.24844H56.4554C54.6621 7.24844 53.2034 5.78976 53.2034 3.99645C53.2034 2.20313 54.6621 0.744446 56.4554 0.744446H59.7074V1.90624H56.4554C55.303 1.90452 54.3643 2.84323 54.3643 3.99559Z" fill="#1C1C1C"/>
<path d="M66.1555 3.35389L68.9708 7.24686H67.5396L65.2906 4.1433L63.6457 5.63973V7.24686H62.4839V0.742859H63.6457V4.06951L64.6025 3.19601L65.4665 2.40661L67.2787 0.743715H68.9974L66.1555 3.35389Z" fill="#1C1C1C"/>
<path d="M76.7764 2.54556V2.50866C76.7764 2.18346 76.507 1.91404 76.1818 1.91404H73.5425C73.2173 1.91404 72.9478 2.18346 72.9478 2.50866V2.54556C72.9478 2.87076 73.2173 3.14018 73.5425 3.14018H75.8841C76.4881 3.14018 77.027 3.40018 77.3985 3.80946C77.4268 3.83778 77.4449 3.86523 77.4732 3.89269C77.7615 4.24621 77.9374 4.70097 77.9374 5.19349C77.9374 6.32697 77.0175 7.2468 75.8841 7.2468H73.8488C72.7153 7.2468 71.7955 6.32697 71.7955 5.19349H72.9573C72.9573 5.68601 73.3571 6.08586 73.8496 6.08586H75.8849C76.3774 6.08586 76.7859 5.68601 76.7859 5.19349C76.7859 4.70097 76.3774 4.30112 75.8849 4.30112H73.5433C73.0697 4.30112 72.6424 4.11493 72.3257 3.8086C72.2417 3.72537 72.1679 3.63185 72.1026 3.52974C71.9079 3.25087 71.7963 2.9068 71.7963 2.53526V2.49837C71.7963 1.5322 72.5772 0.741943 73.5433 0.741943H76.1827C77.1488 0.741943 77.9391 1.53135 77.9391 2.49837V2.53526L76.7764 2.54556Z" fill="#1C1C1C"/>
</svg>
