<svg width="17" height="17" viewBox="0 0 17 17" fill="none" xmlns="http://www.w3.org/2000/svg">
<path fill-rule="evenodd" clip-rule="evenodd" d="M8.44616 0.417167C8.86616 0.41383 9.19615 0.430517 9.42949 0.463891C9.62282 0.493928 9.89949 0.537314 10.0462 0.564014C10.1928 0.59405 10.4628 0.657461 10.6462 0.71086C10.8295 0.760921 11.1295 0.861044 11.3128 0.927792C11.4962 0.99454 11.8262 1.14139 12.0462 1.24818C12.2662 1.35832 12.6262 1.56524 12.8462 1.70875C13.0662 1.85226 13.3595 2.06251 13.4962 2.17265C13.6328 2.28278 13.8728 2.4897 14.0262 2.63655C14.1795 2.78006 14.4328 3.05039 14.5862 3.23395C14.7395 3.41751 14.9962 3.76126 15.1562 4.00155C15.3162 4.24185 15.5462 4.639 15.6695 4.88597C15.7928 5.13294 15.9728 5.58349 16.0728 5.88719C16.1762 6.1909 16.2895 6.59473 16.3262 6.7883C16.3628 6.98187 16.4195 7.30226 16.4462 7.50584C16.4728 7.70943 16.4962 8.11325 16.4962 8.41696C16.4962 8.77406 16.4728 9.11782 16.4295 9.43153C16.3928 9.69519 16.3195 10.089 16.2662 10.3093C16.2128 10.5295 16.1162 10.8599 16.0495 11.0435C15.9862 11.2271 15.8728 11.5208 15.7962 11.6943C15.7195 11.8678 15.5762 12.1549 15.4795 12.3284C15.3795 12.502 15.2062 12.7823 15.0895 12.9525C14.9728 13.1194 14.7528 13.4131 14.5962 13.6C14.4395 13.7869 14.1862 14.0605 14.0295 14.2074C13.8728 14.3542 13.6328 14.5678 13.4962 14.6746C13.3595 14.7848 13.0895 14.9783 12.8962 15.1085C12.7028 15.2353 12.3962 15.4189 12.2128 15.5156C12.0295 15.6124 11.7062 15.7626 11.4962 15.8461C11.2862 15.9295 10.9862 16.0363 10.8295 16.083C10.6728 16.1297 10.3828 16.2065 10.1795 16.2499C9.97615 16.2933 9.67616 16.3467 9.51282 16.3734C9.33282 16.4001 8.92282 16.4167 8.49615 16.4167C7.98282 16.4167 7.66949 16.4001 7.39616 16.36C7.18616 16.3266 6.83282 16.2566 6.61282 16.2032C6.39282 16.1498 6.06282 16.053 5.87949 15.9862C5.69616 15.9228 5.40949 15.8127 5.24616 15.7393C5.08282 15.6658 4.80282 15.529 4.62949 15.4322C4.45616 15.3354 4.18615 15.1686 4.02949 15.0651C3.87282 14.9583 3.64949 14.7948 3.52949 14.698C3.40949 14.6045 3.18615 14.411 3.03282 14.2708C2.87949 14.1306 2.60949 13.8503 2.43615 13.6467C2.26615 13.4431 2.02282 13.1294 1.89615 12.9458C1.77282 12.7623 1.59615 12.4753 1.50282 12.3117C1.40949 12.1482 1.27282 11.8678 1.19615 11.6943C1.11949 11.5208 0.999488 11.2137 0.929488 11.0101C0.862821 10.8065 0.766155 10.4795 0.719488 10.2759C0.669488 10.0723 0.599488 9.70186 0.562821 9.44822C0.516155 9.1345 0.496155 8.82079 0.496155 8.44032C0.496155 8.06987 0.519488 7.73279 0.562821 7.41239C0.599488 7.15208 0.672821 6.75826 0.726155 6.53799C0.779488 6.31772 0.876155 5.98732 0.942821 5.80376C1.00615 5.6202 1.11949 5.32651 1.19615 5.15296C1.27282 4.97942 1.40949 4.69907 1.50282 4.53554C1.59615 4.37201 1.77282 4.08499 1.89949 3.90143C2.02282 3.71787 2.22615 3.44754 2.34949 3.3007C2.47282 3.15385 2.64949 2.9536 2.74282 2.85348C2.83616 2.7567 3.07615 2.53309 3.27949 2.35954C3.47949 2.186 3.79616 1.94237 3.97949 1.81888C4.16282 1.69206 4.44949 1.51518 4.61282 1.42173C4.77615 1.32828 5.08615 1.1781 5.29615 1.08799C5.50615 0.997878 5.84282 0.871056 6.04615 0.804308C6.24949 0.740897 6.55616 0.654124 6.72949 0.614075C6.90282 0.577363 7.21949 0.51729 7.42949 0.483916C7.68949 0.440529 8.01616 0.420505 8.44616 0.417167ZM8.04949 4.362C7.98949 4.44209 7.97616 4.51885 7.96282 4.85593L7.94616 5.25642C7.63616 5.38324 7.48949 5.45667 7.41949 5.50339C7.35282 5.55012 7.21949 5.66693 7.12615 5.76371C7.03615 5.85716 6.90615 6.04405 6.84282 6.17088C6.77949 6.2977 6.70616 6.51797 6.67616 6.6548C6.63949 6.82167 6.62949 6.98854 6.63949 7.15541C6.64949 7.29225 6.69282 7.50251 6.73616 7.62265C6.77949 7.7428 6.86616 7.92636 6.92949 8.03315C6.99282 8.13995 7.11282 8.29347 7.19616 8.37357C7.27949 8.45367 7.43615 8.57382 7.54615 8.64056C7.65615 8.70398 7.83616 8.78741 7.94616 8.82412C8.05616 8.86083 8.27282 8.90422 8.42949 8.91757C8.58616 8.93426 8.77282 8.97431 8.84282 9.01102C8.91616 9.04439 9.02282 9.13117 9.08616 9.20125C9.15282 9.27467 9.21616 9.4015 9.24949 9.51831C9.28282 9.64179 9.29282 9.75526 9.27949 9.84204C9.26616 9.91546 9.22949 10.0289 9.19616 10.0923C9.16282 10.1558 9.08615 10.2559 9.02282 10.3159C8.96282 10.376 8.84616 10.4461 8.76282 10.4761C8.67949 10.5028 8.55949 10.5262 8.49615 10.5262C8.43282 10.5262 8.31949 10.5062 8.24949 10.4828C8.17949 10.4628 8.05949 10.3894 7.98616 10.326C7.91282 10.2626 7.81949 10.1391 7.77615 10.0523C7.73282 9.96218 7.64615 9.85872 7.58615 9.81867C7.50615 9.7586 7.43282 9.74191 7.27949 9.74191C7.12616 9.74191 7.05282 9.7586 6.96949 9.81867C6.91282 9.85872 6.83616 9.94216 6.80616 10.0022C6.77616 10.059 6.74949 10.1758 6.74949 10.2592C6.74949 10.3627 6.77949 10.4661 6.84949 10.5896C6.90282 10.6897 7.02949 10.8633 7.12949 10.9734C7.22949 11.0802 7.38616 11.2204 7.47949 11.2771C7.56949 11.3372 7.71615 11.4106 7.80282 11.4473L7.95949 11.5107C7.97949 12.235 7.98949 12.3051 8.04949 12.3851C8.08616 12.4352 8.16949 12.512 8.23282 12.5554C8.30949 12.6054 8.39615 12.6321 8.49615 12.6321C8.59615 12.6321 8.68282 12.6054 8.75949 12.5554C8.82282 12.512 8.90615 12.4352 8.94282 12.3851C9.00282 12.3051 9.01282 12.235 9.02282 11.9012L9.03282 11.5107C9.47282 11.3105 9.61282 11.2137 9.77949 11.0569C9.93616 10.91 10.0528 10.7598 10.1362 10.6063C10.2028 10.4795 10.2795 10.2926 10.3095 10.1925C10.3428 10.0823 10.3628 9.88876 10.3628 9.70854C10.3628 9.48827 10.3428 9.35144 10.2862 9.19124C10.2462 9.07109 10.1595 8.8842 10.0962 8.7774C10.0328 8.6706 9.87949 8.49038 9.75949 8.37691C9.63615 8.2601 9.44282 8.12327 9.30949 8.05985C9.18282 7.99644 8.96616 7.92636 8.82949 7.89966C8.69282 7.8763 8.51282 7.8496 8.42949 7.83958C8.34282 7.82957 8.21282 7.77951 8.11949 7.72277C8.02949 7.66604 7.91949 7.5559 7.86282 7.46579C7.80616 7.37568 7.75282 7.23885 7.74282 7.15541C7.73282 7.07198 7.73949 6.93848 7.76282 6.85505C7.78282 6.77161 7.84282 6.64813 7.88949 6.58138C7.93949 6.51463 8.03949 6.42118 8.11282 6.37446C8.18616 6.32773 8.31282 6.27767 8.39616 6.26766C8.47949 6.25431 8.61282 6.26099 8.69616 6.28435C8.77949 6.30771 8.89949 6.36778 8.96282 6.41784C9.02616 6.46791 9.13949 6.59806 9.21282 6.7082C9.28616 6.815 9.39949 6.93181 9.46282 6.96852C9.52616 7.00523 9.63949 7.03527 9.71282 7.03527C9.78616 7.03527 9.89949 7.00523 9.96282 6.96852C10.0262 6.93181 10.1128 6.84837 10.1562 6.78496C10.2095 6.70486 10.2295 6.62476 10.2295 6.51463C10.2295 6.42452 10.2028 6.2977 10.1662 6.23095C10.1328 6.16086 10.0295 6.00734 9.94282 5.89053C9.83615 5.7537 9.69615 5.62354 9.54615 5.52342C9.41615 5.43998 9.24949 5.34653 9.17282 5.31983L9.03282 5.26977C9.01282 4.51218 9.00282 4.44543 8.94282 4.362C8.90615 4.31193 8.82282 4.23517 8.75949 4.19179C8.68282 4.14173 8.59949 4.11836 8.49282 4.11836C8.39282 4.11836 8.30504 4.14395 8.22949 4.19512C8.16949 4.23517 8.08616 4.31193 8.04949 4.362Z" fill="white"/>
</svg>
