<svg width="17" height="12" viewBox="0 0 17 12" fill="none" xmlns="http://www.w3.org/2000/svg">
<path d="M6.83557 0.609704C6.757 0.663275 6.66414 0.770418 6.62128 0.848989L6.54985 0.991847C7.007 5.11685 7.132 6.36685 7.12128 6.43113C7.11057 6.49185 7.04628 6.59899 6.98557 6.66685C6.91414 6.73827 6.79985 6.80613 6.707 6.83113C6.58557 6.86685 6.51414 6.86685 6.42128 6.83827C6.35343 6.81685 6.25343 6.76685 6.19985 6.72756C6.14271 6.6847 6.07485 6.5847 6.04628 6.49899C6.01771 6.41685 5.88914 5.3847 5.757 4.20613C5.62843 3.02756 5.51414 2.0597 5.507 2.05256C5.49985 2.04899 5.39271 2.11328 5.27128 2.19185C5.14628 2.27399 4.932 2.43113 4.79628 2.53828C4.66057 2.64899 4.43557 2.84185 4.29985 2.97399C4.16414 3.10256 3.932 3.35256 3.78557 3.52756C3.63557 3.70256 3.40342 4.01685 3.26771 4.22399C3.132 4.43113 2.91771 4.80613 2.79271 5.06327C2.66771 5.31685 2.49628 5.74542 2.407 6.0097C2.31771 6.27399 2.207 6.69185 2.157 6.93827C2.107 7.1847 2.04985 7.57042 2.02842 7.79542C2.007 8.02042 1.99271 8.39899 1.99985 8.6347L2.01057 9.06327H15.6891C15.707 8.39899 15.6927 8.02042 15.6713 7.79542C15.6499 7.57042 15.5927 7.1847 15.5427 6.93827C15.4927 6.69185 15.382 6.27399 15.2927 6.0097C15.2034 5.74542 15.032 5.31685 14.907 5.06327C14.782 4.80613 14.5677 4.43113 14.432 4.22399C14.2963 4.01685 14.0927 3.7347 13.9784 3.59899C13.8606 3.4597 13.6713 3.24542 13.5499 3.12042C13.4284 2.99542 13.1963 2.78113 13.0284 2.63828C12.8606 2.49899 12.607 2.30613 12.4677 2.21327C12.3249 2.12042 12.1999 2.04899 12.1927 2.05256C12.1856 2.0597 12.0713 3.02756 11.9427 4.20613C11.8106 5.3847 11.6784 6.41685 11.6499 6.50256C11.6249 6.5847 11.557 6.6847 11.5034 6.72756C11.4463 6.76685 11.3391 6.81685 11.2606 6.83827C11.1534 6.87042 11.082 6.86685 10.9749 6.83113C10.8963 6.80613 10.7784 6.73113 10.7177 6.66685C10.6534 6.59899 10.5891 6.49185 10.5784 6.42756C10.5677 6.36685 10.6891 5.11685 10.8534 3.65256L11.1499 0.991847C11.0356 0.770418 10.9427 0.663275 10.8641 0.609704L10.7249 0.513275H6.97485L6.83557 0.609704ZM1.42128 10.2704C1.35342 10.2918 1.21414 10.3918 1.11771 10.4883C1.007 10.599 0.921282 10.724 0.892711 10.8133C0.871282 10.8918 0.849854 11.024 0.849854 11.1061C0.849854 11.1918 0.881996 11.3276 0.921282 11.4097C0.960568 11.4954 1.04271 11.6133 1.107 11.674C1.17128 11.7383 1.28557 11.8204 1.36057 11.8633L1.49271 11.9383H16.207C16.4356 11.8133 16.5606 11.7097 16.632 11.6311C16.7034 11.5526 16.782 11.424 16.8034 11.3454C16.8284 11.2668 16.8499 11.1418 16.8499 11.0633C16.8499 10.9847 16.8284 10.8597 16.7963 10.7847C16.7677 10.7133 16.6749 10.5776 16.5927 10.4883C16.4927 10.3847 16.382 10.3097 16.2784 10.274C16.1391 10.2311 15.157 10.224 8.832 10.2276C3.632 10.2311 1.51057 10.2418 1.42128 10.2704Z" fill="white"/>
</svg>
