<svg width="36" height="37" viewBox="0 0 36 37" fill="none" xmlns="http://www.w3.org/2000/svg">
<rect x="1.26562" y="1.46106" width="34" height="35" rx="3.5" fill="#FFEBD5"/>
<path d="M16.0801 12.8677C15.9949 12.9258 15.8941 13.0421 15.8476 13.1273L15.7701 13.2823C16.2661 17.7579 16.4017 19.1141 16.3901 19.1839C16.3785 19.2497 16.3087 19.366 16.2429 19.4396C16.1654 19.5171 16.0414 19.5907 15.9406 19.6179C15.8089 19.6566 15.7314 19.6566 15.6306 19.6256C15.557 19.6024 15.4485 19.5481 15.3904 19.5055C15.3284 19.459 15.2548 19.3505 15.2238 19.2575C15.1928 19.1684 15.0533 18.0485 14.9099 16.7698C14.7704 15.491 14.6464 14.4409 14.6386 14.4332C14.6309 14.4293 14.5146 14.499 14.3829 14.5843C14.2473 14.6734 14.0148 14.8439 13.8675 14.9602C13.7203 15.0803 13.4762 15.2895 13.3289 15.4329C13.1817 15.5724 12.9298 15.8437 12.7709 16.0335C12.6082 16.2234 12.3563 16.5644 12.209 16.7891C12.0618 17.0139 11.8293 17.4208 11.6937 17.6998C11.558 17.9749 11.372 18.4399 11.2752 18.7266C11.1783 19.0134 11.0582 19.4667 11.0039 19.7341C10.9497 20.0015 10.8877 20.42 10.8644 20.6641C10.8412 20.9082 10.8257 21.319 10.8334 21.5747L10.8451 22.0397H25.6862C25.7055 21.319 25.69 20.9082 25.6668 20.6641C25.6435 20.42 25.5815 20.0015 25.5273 19.7341C25.473 19.4667 25.3529 19.0134 25.256 18.7266C25.1592 18.4399 24.9732 17.9749 24.8375 17.6998C24.7019 17.4208 24.4694 17.0139 24.3222 16.7891C24.1749 16.5644 23.954 16.2583 23.83 16.111C23.7022 15.9599 23.4968 15.7274 23.3651 15.5918C23.2333 15.4562 22.9814 15.2237 22.7993 15.0687C22.6172 14.9175 22.3421 14.7083 22.1909 14.6075C22.0359 14.5068 21.9003 14.4293 21.8926 14.4332C21.8848 14.4409 21.7608 15.491 21.6213 16.7698C21.4779 18.0485 21.3346 19.1684 21.3036 19.2614C21.2764 19.3505 21.2028 19.459 21.1447 19.5055C21.0827 19.5481 20.9665 19.6024 20.8812 19.6256C20.765 19.6605 20.6875 19.6566 20.5712 19.6179C20.486 19.5907 20.3581 19.5094 20.2922 19.4396C20.2225 19.366 20.1527 19.2497 20.1411 19.18C20.1295 19.1141 20.2612 17.7579 20.4395 16.1692L20.7611 13.2823C20.6371 13.0421 20.5363 12.9258 20.4511 12.8677L20.3 12.7631H16.2312L16.0801 12.8677ZM10.2057 23.3495C10.1321 23.3727 9.98094 23.4812 9.87632 23.5858C9.75619 23.7059 9.66319 23.8416 9.63219 23.9384C9.60894 24.0237 9.58569 24.1671 9.58569 24.2562C9.58569 24.3492 9.62057 24.4964 9.66319 24.5856C9.70582 24.6786 9.79494 24.8064 9.86469 24.8723C9.93444 24.9421 10.0584 25.0312 10.1398 25.0777L10.2832 25.1591H26.248C26.496 25.0234 26.6316 24.9111 26.7091 24.8258C26.7866 24.7406 26.8719 24.6011 26.8951 24.5158C26.9223 24.4306 26.9455 24.2949 26.9455 24.2097C26.9455 24.1244 26.9223 23.9888 26.8874 23.9074C26.8564 23.8299 26.7556 23.6827 26.6665 23.5858C26.558 23.4734 26.4379 23.3921 26.3255 23.3533C26.1744 23.3068 25.1088 23.2991 18.2462 23.303C12.6043 23.3068 10.3026 23.3185 10.2057 23.3495Z" fill="#CE7C1F"/>
<rect x="1.26562" y="1.46106" width="34" height="35" rx="3.5" stroke="#C88234"/>
</svg>
