<svg width="12" height="13" viewBox="0 0 12 13" fill="none" xmlns="http://www.w3.org/2000/svg">
<path fill-rule="evenodd" clip-rule="evenodd" d="M5.09855 0.769958C2.52122 0.769958 0.431885 2.8593 0.431885 5.43663C0.431885 8.01395 2.52122 10.1033 5.09855 10.1033C6.14677 10.1033 7.11428 9.75769 7.89333 9.17421L10.6272 11.9081C10.8875 12.1684 11.3097 12.1684 11.57 11.9081C11.8304 11.6477 11.8304 11.2256 11.57 10.9653L8.83614 8.23141C9.41961 7.45235 9.76522 6.48485 9.76522 5.43663C9.76522 2.8593 7.67588 0.769958 5.09855 0.769958ZM1.76522 5.43663C1.76522 3.59568 3.2576 2.10329 5.09855 2.10329C6.9395 2.10329 8.43188 3.59568 8.43188 5.43663C8.43188 7.27757 6.9395 8.76996 5.09855 8.76996C3.2576 8.76996 1.76522 7.27757 1.76522 5.43663Z" fill="#64748B"/>
</svg>
