<svg width="17" height="5" viewBox="0 0 17 5" fill="none" xmlns="http://www.w3.org/2000/svg">
<path d="M7.55438 2.85321C7.55438 3.37098 7.97412 3.79071 8.49188 3.79071C9.00965 3.79071 9.42938 3.37098 9.42938 2.85321C9.42938 2.33544 9.00965 1.91571 8.49188 1.91571C7.97412 1.91571 7.55438 2.33544 7.55438 2.85321Z" stroke="black" stroke-width="1.875" stroke-linecap="round" stroke-linejoin="round"/>
<path d="M14.1169 2.85321C14.1169 3.37098 14.5366 3.79071 15.0544 3.79071C15.5721 3.79071 15.9919 3.37098 15.9919 2.85321C15.9919 2.33544 15.5721 1.91571 15.0544 1.91571C14.5366 1.91571 14.1169 2.33544 14.1169 2.85321Z" stroke="black" stroke-width="1.875" stroke-linecap="round" stroke-linejoin="round"/>
<path d="M0.991882 2.85321C0.991882 3.37098 1.41162 3.79071 1.92938 3.79071C2.44715 3.79071 2.86688 3.37098 2.86688 2.85321C2.86688 2.33544 2.44715 1.91571 1.92938 1.91571C1.41162 1.91571 0.991882 2.33544 0.991882 2.85321Z" stroke="black" stroke-width="1.875" stroke-linecap="round" stroke-linejoin="round"/>
</svg>
