<svg width="17" height="17" viewBox="0 0 17 17" fill="none" xmlns="http://www.w3.org/2000/svg">
<path fill-rule="evenodd" clip-rule="evenodd" d="M8.40454 0.54677C8.87954 0.543645 9.13267 0.55927 9.46079 0.606145C9.69517 0.64052 10.0264 0.699895 10.1952 0.73427C10.3608 0.77177 10.6733 0.856145 10.8889 0.924895C11.1045 0.993645 11.442 1.12177 11.6389 1.20615C11.8358 1.29052 12.1389 1.4374 12.3108 1.53427C12.4827 1.63115 12.742 1.7874 12.8889 1.8874C13.0358 1.98427 13.2952 2.17802 13.467 2.31552C13.6389 2.45302 13.9264 2.70927 14.1045 2.89052C14.2827 3.06865 14.542 3.35615 14.6795 3.52802C14.817 3.6999 15.0108 3.95927 15.1077 4.10615C15.2077 4.25302 15.3577 4.50302 15.4483 4.6624C15.5358 4.81865 15.6733 5.09365 15.7514 5.27177C15.8327 5.44677 15.9639 5.79365 16.0452 6.04365C16.1295 6.29365 16.2233 6.63115 16.2577 6.79365C16.2952 6.95615 16.3514 7.29052 16.3858 7.5374C16.4327 7.8499 16.4514 8.14052 16.4514 8.52177C16.4514 8.8249 16.4295 9.22177 16.4045 9.43427C16.3764 9.64052 16.3202 9.98115 16.2795 10.1936C16.2358 10.403 16.1327 10.7811 16.0483 11.0374C15.967 11.2905 15.842 11.6155 15.7764 11.7624C15.7108 11.9093 15.5795 12.1686 15.4889 12.3405C15.3952 12.5124 15.2327 12.7874 15.1264 12.9499C15.0202 13.1124 14.817 13.3874 14.6795 13.5593C14.542 13.7311 14.2827 14.0186 14.1045 14.1968C13.9264 14.378 13.6389 14.6343 13.467 14.7718C13.2952 14.9093 13.0358 15.103 12.8889 15.1999C12.742 15.2999 12.4702 15.4655 12.2795 15.5686C12.0889 15.6718 11.7889 15.8186 11.6077 15.8968C11.4264 15.9718 11.1045 16.0936 10.8889 16.1624C10.6733 16.2311 10.3608 16.3155 10.1952 16.353C10.0264 16.3874 9.69517 16.4468 9.46079 16.4811C9.15142 16.5249 8.86392 16.5436 8.45142 16.5436C8.02642 16.5436 7.75767 16.528 7.43579 16.478C7.19517 16.4436 6.86392 16.3874 6.70142 16.3499C6.53892 16.3155 6.20142 16.2218 5.95142 16.1374C5.70142 16.0561 5.36392 15.928 5.20142 15.8561C5.03892 15.7811 4.76392 15.6436 4.59204 15.5499C4.42017 15.4561 4.16079 15.2968 4.01392 15.1999C3.86704 15.103 3.60767 14.9093 3.43579 14.7718C3.26392 14.6343 2.97642 14.3749 2.79829 14.1968C2.62017 14.0186 2.36079 13.7311 2.22329 13.5593C2.08579 13.3874 1.89204 13.128 1.79517 12.9811C1.69517 12.8343 1.54517 12.5843 1.45454 12.428C1.36704 12.2686 1.22954 11.9936 1.15142 11.8186C1.07017 11.6405 0.938916 11.2936 0.857666 11.0436C0.773291 10.7936 0.679541 10.4561 0.645166 10.2936C0.607666 10.1311 0.551416 9.79677 0.517041 9.55302C0.470166 9.2374 0.451416 8.94677 0.451416 8.56865C0.451416 8.2624 0.473291 7.86552 0.498291 7.65302C0.526416 7.44677 0.582666 7.10927 0.623291 6.90302C0.663916 6.69677 0.757666 6.34677 0.829541 6.12177C0.901416 5.89677 1.02642 5.5624 1.10454 5.37177C1.18579 5.18115 1.33579 4.88115 1.43579 4.6999C1.53579 4.51865 1.69517 4.25302 1.79517 4.10615C1.89204 3.95927 2.08579 3.6999 2.22329 3.52802C2.36079 3.35615 2.62017 3.06865 2.79829 2.89052C2.97642 2.7124 3.26392 2.45302 3.43579 2.31552C3.60767 2.17802 3.86704 1.98427 4.01392 1.8874C4.16079 1.7874 4.42642 1.62802 4.60767 1.52802C4.78892 1.42802 5.08892 1.27802 5.27954 1.19677C5.47017 1.11865 5.79829 0.993645 6.01392 0.924895C6.22954 0.856145 6.54517 0.77177 6.71704 0.73427C6.88892 0.69677 7.19829 0.64052 7.40454 0.60927C7.66704 0.568645 7.96704 0.549895 8.40454 0.54677ZM11.8858 5.0124C11.8233 5.05615 10.8514 6.02177 9.72954 7.1624C8.37642 8.53427 7.65454 9.24365 7.59204 9.26552C7.53892 9.28115 7.43892 9.29365 7.36392 9.29365C7.29204 9.29365 7.19517 9.27802 7.14517 9.25927C7.09829 9.24052 6.59829 8.76552 6.02954 8.20302C5.07642 7.25302 4.98579 7.17177 4.81079 7.10615C4.67642 7.05302 4.55767 7.03427 4.38892 7.03427C4.22642 7.03427 4.10142 7.05302 3.98267 7.0999C3.88579 7.13427 3.73579 7.23115 3.63892 7.31865C3.53579 7.4124 3.42954 7.54365 3.37329 7.65615C3.28892 7.82177 3.27954 7.86865 3.27954 8.1374C3.27954 8.35302 3.29517 8.47802 3.33892 8.59052C3.38892 8.72802 3.59829 8.9499 5.04204 10.3968C6.50767 11.8655 6.70767 12.0561 6.88892 12.1468C7.07642 12.2405 7.11392 12.2468 7.40454 12.2468C7.68579 12.2468 7.73579 12.2374 7.90454 12.1561C8.04204 12.0905 8.18579 11.9718 8.43892 11.7186C8.62642 11.528 9.81704 10.3186 11.0795 9.03427C12.342 7.74677 13.4139 6.63427 13.4608 6.56552C13.5077 6.49365 13.5702 6.35615 13.5983 6.2624C13.6295 6.1499 13.642 6.01552 13.6327 5.87177C13.6233 5.7249 13.592 5.59365 13.5358 5.4749C13.4889 5.3749 13.3889 5.23115 13.3108 5.15302C13.2327 5.0749 13.0889 4.9749 12.9889 4.92802C12.8545 4.86552 12.7514 4.84052 12.5608 4.83427C12.3764 4.8249 12.2702 4.8374 12.1545 4.87802C12.067 4.90927 11.9483 4.97177 11.8858 5.0124Z" fill="white"/>
</svg>
