<svg width="17" height="21" viewBox="0 0 17 21" fill="none" xmlns="http://www.w3.org/2000/svg">
<path d="M11.1738 15.6154H15.8613L14.5442 14.152C14.187 13.7551 13.9863 13.2168 13.9863 12.6555V9.36544C13.9863 6.64415 12.4211 4.32907 10.2363 3.47108V3.11544C10.2363 1.96484 9.39686 1.0321 8.36133 1.0321C7.32579 1.0321 6.48633 1.96484 6.48633 3.11544V3.47108C4.30159 4.32907 2.73633 6.64415 2.73633 9.36544V12.6555C2.73633 13.2168 2.53565 13.7551 2.17845 14.152L0.861328 15.6154H5.54883M11.1738 15.6154V16.6571C11.1738 18.383 9.91463 19.7821 8.36133 19.7821C6.80803 19.7821 5.54883 18.383 5.54883 16.6571V15.6154M11.1738 15.6154H5.54883" stroke="#010101" stroke-width="1.2" stroke-linecap="round" stroke-linejoin="round"/>
</svg>
