<svg width="36" height="37" viewBox="0 0 36 37" fill="none" xmlns="http://www.w3.org/2000/svg">
<rect x="1.26562" y="1.46106" width="34" height="35" rx="3.5" fill="#FADCFF"/>
<path d="M17.7773 27.6883V10.4156H18.8838V27.6883H17.7773ZM20.9687 15.9415C20.9057 15.3523 20.6403 14.8935 20.1725 14.5651C19.7092 14.2367 19.1065 14.0726 18.3643 14.0726C17.8425 14.0726 17.395 14.1513 17.0216 14.3087C16.6483 14.4661 16.3626 14.6798 16.1647 14.9497C15.9668 15.2196 15.8656 15.5277 15.8611 15.8741C15.8611 16.1619 15.9263 16.4116 16.0568 16.623C16.1917 16.8344 16.3739 17.0143 16.6033 17.1628C16.8327 17.3067 17.0868 17.4282 17.3657 17.5271C17.6446 17.6261 17.9257 17.7093 18.2091 17.7768L19.5046 18.1006C20.0264 18.2221 20.5279 18.3862 21.0092 18.5932C21.495 18.8001 21.9291 19.061 22.3114 19.3758C22.6982 19.6907 23.0041 20.0708 23.229 20.5161C23.4539 20.9614 23.5664 21.4832 23.5664 22.0814C23.5664 22.8911 23.3594 23.6041 22.9456 24.2203C22.5318 24.832 21.9335 25.3111 21.1509 25.6574C20.3727 25.9993 19.4304 26.1702 18.3238 26.1702C17.2488 26.1702 16.3154 26.0038 15.5237 25.6709C14.7366 25.3381 14.1203 24.8523 13.675 24.2135C13.2342 23.5748 12.9958 22.7966 12.9598 21.879H15.4225C15.4585 22.3603 15.607 22.7607 15.8679 23.08C16.1287 23.3994 16.4684 23.6378 16.8867 23.7952C17.3095 23.9527 17.7818 24.0314 18.3036 24.0314C18.8478 24.0314 19.3246 23.9504 19.734 23.7885C20.1478 23.622 20.4717 23.3926 20.7056 23.1003C20.9395 22.8034 21.0587 22.457 21.0632 22.0612C21.0587 21.7014 20.953 21.4045 20.746 21.1706C20.5391 20.9322 20.249 20.7343 19.8757 20.5768C19.5068 20.4149 19.075 20.271 18.5802 20.145L17.0081 19.7402C15.8701 19.4478 14.9705 19.0047 14.3093 18.411C13.6525 17.8127 13.3242 17.0188 13.3242 16.0292C13.3242 15.2151 13.5446 14.5021 13.9854 13.8904C14.4307 13.2786 15.0357 12.8041 15.8004 12.4667C16.5651 12.1249 17.4309 11.954 18.398 11.954C19.3786 11.954 20.2378 12.1249 20.9755 12.4667C21.7176 12.8041 22.3001 13.2742 22.723 13.8769C23.1458 14.4751 23.3639 15.1634 23.3774 15.9415H20.9687Z" fill="#B548C6"/>
<rect x="1.26562" y="1.46106" width="34" height="35" rx="3.5" stroke="#B548C6"/>
</svg>
