<svg width="21" height="21" viewBox="0 0 21 21" fill="none" xmlns="http://www.w3.org/2000/svg">
<path d="M13.576 7.30758L9.28596 11.6076L7.63596 9.95758C7.54631 9.8529 7.436 9.76788 7.31193 9.70785C7.18787 9.64783 7.05273 9.6141 6.91501 9.60878C6.7773 9.60346 6.63996 9.62667 6.51164 9.67694C6.38331 9.72722 6.26677 9.80347 6.16931 9.90093C6.07186 9.99838 5.9956 10.1149 5.94532 10.2433C5.89505 10.3716 5.87184 10.5089 5.87716 10.6466C5.88248 10.7844 5.91621 10.9195 5.97624 11.0435C6.03626 11.1676 6.12128 11.2779 6.22596 11.3676L8.57596 13.7276C8.6694 13.8203 8.78022 13.8936 8.90205 13.9433C9.02389 13.9931 9.15436 14.0183 9.28596 14.0176C9.5483 14.0165 9.7997 13.9123 9.98596 13.7276L14.986 8.72758C15.0797 8.63461 15.1541 8.52401 15.2049 8.40215C15.2556 8.2803 15.2818 8.14959 15.2818 8.01758C15.2818 7.88557 15.2556 7.75486 15.2049 7.633C15.1541 7.51114 15.0797 7.40054 14.986 7.30758C14.7986 7.12133 14.5451 7.01679 14.281 7.01679C14.0168 7.01679 13.7633 7.12133 13.576 7.30758ZM10.856 0.517578C8.87815 0.517578 6.94475 1.10407 5.30026 2.20288C3.65577 3.3017 2.37404 4.86348 1.61717 6.69074C0.86029 8.518 0.662257 10.5287 1.04811 12.4685C1.43396 14.4083 2.38637 16.1901 3.78489 17.5886C5.18342 18.9872 6.96525 19.9396 8.90506 20.3254C10.8449 20.7113 12.8555 20.5133 14.6828 19.7564C16.5101 18.9995 18.0718 17.7178 19.1707 16.0733C20.2695 14.4288 20.856 12.4954 20.856 10.5176C20.856 9.20436 20.5973 7.904 20.0948 6.69074C19.5922 5.47749 18.8556 4.3751 17.927 3.44651C16.9984 2.51792 15.8961 1.78133 14.6828 1.27878C13.4695 0.776236 12.1692 0.517578 10.856 0.517578ZM10.856 18.5176C9.27371 18.5176 7.72699 18.0484 6.4114 17.1693C5.09581 16.2903 4.07043 15.0409 3.46493 13.579C2.85942 12.1172 2.701 10.5087 3.00968 8.95686C3.31836 7.40501 4.08029 5.97954 5.19911 4.86072C6.31793 3.7419 7.74339 2.97998 9.29524 2.6713C10.8471 2.36261 12.4556 2.52104 13.9174 3.12654C15.3792 3.73204 16.6287 4.75742 17.5077 6.07302C18.3868 7.38861 18.856 8.93533 18.856 10.5176C18.856 12.6393 18.0131 14.6741 16.5128 16.1744C15.0125 17.6747 12.9777 18.5176 10.856 18.5176Z" fill="white"/>
</svg>
