<svg width="17" height="4" viewBox="0 0 17 4" fill="none" xmlns="http://www.w3.org/2000/svg">
<path d="M7.61804 1.85321C7.61804 2.33646 8.00979 2.72821 8.49304 2.72821C8.97629 2.72821 9.36804 2.33646 9.36804 1.85321C9.36804 1.36996 8.97629 0.97821 8.49304 0.97821C8.00979 0.97821 7.61804 1.36996 7.61804 1.85321Z" stroke="#D9D9D9" stroke-width="1.75" stroke-linecap="round" stroke-linejoin="round"/>
<path d="M13.743 1.85321C13.743 2.33646 14.1348 2.72821 14.618 2.72821C15.1013 2.72821 15.493 2.33646 15.493 1.85321C15.493 1.36996 15.1013 0.97821 14.618 0.97821C14.1348 0.97821 13.743 1.36996 13.743 1.85321Z" stroke="#D9D9D9" stroke-width="1.75" stroke-linecap="round" stroke-linejoin="round"/>
<path d="M1.49304 1.85321C1.49304 2.33646 1.88479 2.72821 2.36804 2.72821C2.85129 2.72821 3.24304 2.33646 3.24304 1.85321C3.24304 1.36996 2.85129 0.97821 2.36804 0.97821C1.88479 0.97821 1.49304 1.36996 1.49304 1.85321Z" stroke="#D9D9D9" stroke-width="1.75" stroke-linecap="round" stroke-linejoin="round"/>
</svg>
