<svg width="17" height="17" viewBox="0 0 17 17" fill="none" xmlns="http://www.w3.org/2000/svg">
<path fill-rule="evenodd" clip-rule="evenodd" d="M8.45911 0.5049C8.93411 0.501775 9.18723 0.5174 9.51536 0.564275C9.74973 0.59865 10.081 0.658025 10.2497 0.6924C10.4154 0.7299 10.7279 0.814275 10.9435 0.883025C11.1591 0.951775 11.4966 1.0799 11.6935 1.16428C11.8904 1.24865 12.1935 1.39553 12.3654 1.4924C12.5372 1.58928 12.7966 1.74553 12.9435 1.84553C13.0904 1.9424 13.3497 2.13615 13.5216 2.27365C13.6935 2.41115 13.981 2.6674 14.1591 2.84865C14.3372 3.02678 14.5966 3.31428 14.7341 3.48615C14.8716 3.65803 15.0654 3.9174 15.1622 4.06428C15.2622 4.21115 15.4122 4.46115 15.5029 4.62053C15.5904 4.77678 15.7279 5.05178 15.806 5.2299C15.8872 5.4049 16.0185 5.75178 16.0997 6.00178C16.1841 6.25178 16.2779 6.58928 16.3122 6.75178C16.3497 6.91428 16.406 7.24865 16.4404 7.49553C16.4872 7.80803 16.506 8.09865 16.506 8.4799C16.506 8.78303 16.4841 9.1799 16.4591 9.3924C16.431 9.59865 16.3747 9.93928 16.3341 10.1518C16.2904 10.3612 16.1872 10.7393 16.1029 10.9955C16.0216 11.2487 15.8966 11.5737 15.831 11.7205C15.7654 11.8674 15.6341 12.1268 15.5435 12.2987C15.4497 12.4705 15.2872 12.7455 15.181 12.908C15.0747 13.0705 14.8716 13.3455 14.7341 13.5174C14.5966 13.6893 14.3372 13.9768 14.1591 14.1549C13.981 14.3362 13.6935 14.5924 13.5216 14.7299C13.3497 14.8674 13.0904 15.0612 12.9435 15.158C12.7966 15.258 12.5247 15.4237 12.3341 15.5268C12.1435 15.6299 11.8435 15.7768 11.6622 15.8549C11.481 15.9299 11.1591 16.0518 10.9435 16.1205C10.7279 16.1893 10.4154 16.2737 10.2497 16.3112C10.081 16.3455 9.74973 16.4049 9.51536 16.4393C9.20598 16.483 8.91848 16.5018 8.50598 16.5018C8.08098 16.5018 7.81223 16.4862 7.49036 16.4362C7.24973 16.4018 6.91848 16.3455 6.75598 16.308C6.59348 16.2737 6.25598 16.1799 6.00598 16.0955C5.75598 16.0143 5.41848 15.8862 5.25598 15.8143C5.09348 15.7393 4.81848 15.6018 4.64661 15.508C4.47473 15.4143 4.21536 15.2549 4.06848 15.158C3.92161 15.0612 3.66223 14.8674 3.49036 14.7299C3.31848 14.5924 3.03098 14.333 2.85286 14.1549C2.67473 13.9768 2.41536 13.6893 2.27786 13.5174C2.14036 13.3455 1.94661 13.0862 1.84973 12.9393C1.74973 12.7924 1.59973 12.5424 1.50911 12.3862C1.42161 12.2268 1.28411 11.9518 1.20598 11.7768C1.12473 11.5986 0.993481 11.2518 0.912231 11.0018C0.827856 10.7518 0.734106 10.4143 0.699731 10.2518C0.662231 10.0893 0.605981 9.7549 0.571606 9.51115C0.524731 9.19553 0.505981 8.9049 0.505981 8.52678C0.505981 8.22053 0.527856 7.82365 0.552856 7.61115C0.580981 7.4049 0.637231 7.0674 0.677856 6.86115C0.718481 6.6549 0.812231 6.3049 0.884106 6.0799C0.955981 5.8549 1.08098 5.52053 1.15911 5.3299C1.24036 5.13928 1.39036 4.83928 1.49036 4.65803C1.59036 4.47678 1.74973 4.21115 1.84973 4.06428C1.94661 3.9174 2.14036 3.65803 2.27786 3.48615C2.41536 3.31428 2.67473 3.02678 2.85286 2.84865C3.03098 2.67053 3.31848 2.41115 3.49036 2.27365C3.66223 2.13615 3.92161 1.9424 4.06848 1.84553C4.21536 1.74553 4.48098 1.58615 4.66223 1.48615C4.84348 1.38615 5.14348 1.23615 5.33411 1.1549C5.52473 1.07678 5.85286 0.951775 6.06848 0.883025C6.28411 0.814275 6.59973 0.7299 6.77161 0.6924C6.94348 0.6549 7.25286 0.59865 7.45911 0.5674C7.72161 0.526775 8.02161 0.508025 8.45911 0.5049ZM11.9404 4.97053C11.8779 5.01428 10.906 5.9799 9.78411 7.12053C8.43098 8.4924 7.70911 9.20178 7.64661 9.22365C7.59348 9.23928 7.49348 9.25178 7.41848 9.25178C7.34661 9.25178 7.24973 9.23615 7.19973 9.2174C7.15286 9.19865 6.65286 8.72365 6.08411 8.16115C5.13098 7.21115 5.04036 7.1299 4.86536 7.06428C4.73098 7.01115 4.61223 6.9924 4.44348 6.9924C4.28098 6.9924 4.15598 7.01115 4.03723 7.05803C3.94036 7.0924 3.79036 7.18928 3.69348 7.27678C3.59036 7.37053 3.48411 7.50178 3.42786 7.61428C3.34348 7.7799 3.33411 7.82678 3.33411 8.09553C3.33411 8.31115 3.34973 8.43615 3.39348 8.54865C3.44348 8.68615 3.65286 8.90803 5.09661 10.3549C6.56223 11.8237 6.76223 12.0143 6.94348 12.1049C7.13098 12.1987 7.16848 12.2049 7.45911 12.2049C7.74036 12.2049 7.79036 12.1955 7.95911 12.1143C8.09661 12.0487 8.24036 11.9299 8.49348 11.6768C8.68098 11.4862 9.87161 10.2768 11.1341 8.9924C12.3966 7.7049 13.4685 6.5924 13.5154 6.52365C13.5622 6.45178 13.6247 6.31428 13.6529 6.22053C13.6841 6.10803 13.6966 5.97365 13.6872 5.8299C13.6779 5.68303 13.6466 5.55178 13.5904 5.43303C13.5435 5.33303 13.4435 5.18928 13.3654 5.11115C13.2872 5.03303 13.1435 4.93303 13.0435 4.88615C12.9091 4.82365 12.806 4.79865 12.6154 4.7924C12.431 4.78303 12.3247 4.79553 12.2091 4.83615C12.1216 4.8674 12.0029 4.9299 11.9404 4.97053Z" fill="#828282"/>
</svg>
